<svg version="1.1" xmlns="http://www.w3.org/2000/svg" xmlns:xlink="http://www.w3.org/1999/xlink" width="82.87716" height="72.33446" viewBox="0,0,82.87716,72.33446"><g transform="translate(-395.93126,-286.5)"><g data-paper-data="{&quot;isPaintingLayer&quot;:true}" fill-rule="nonzero" stroke-miterlimit="10" stroke-dasharray="" stroke-dashoffset="0" style="mix-blend-mode: normal"><g data-paper-data="{&quot;index&quot;:null,&quot;origPos&quot;:null}" id="Group" stroke-linejoin="miter"><path d="M407.87004,296.528h1.52294v10.13167h-1.52294z" id="Rectangle" fill="#d974e8" stroke="#5e154d" stroke-width="0.6" stroke-linecap="butt"/><g id="Path"><path d="M420.06837,301.60089c0,1.41642 -1.14926,2.56467 -2.56669,2.56467h-6.02154c-0.82767,0.09577 -1.58074,0.52288 -2.08716,1.18354v-7.49643c0.50642,0.66066 1.25949,1.0881 2.08716,1.18354h6.02154c1.41743,0 2.56669,1.14826 2.56669,2.56467z" id="ID0.719782015774399" fill="#8b49d4" stroke="#5e154d" stroke-width="0.6" stroke-linecap="butt"/><path d="M415.9364,304.16556h1.41003v3.76233h-1.41003v-3.76233" id="ID0.3691422138363123" fill="#8b49d4" stroke="#5e154d" stroke-width="0.6" stroke-linecap="butt"/><path d="M417.34643,300.22009c0.77895,0 1.41037,0.63075 1.41037,1.40902" id="ID0.9415755225345492" fill="none" stroke="#ffffff" stroke-width="0.6" stroke-linecap="butt"/><path d="M404.64067,301.60089h-2.39733" id="ID0.7974647390656173" fill="none" stroke="#5e154d" stroke-width="1.2" stroke-linecap="round"/><path d="M404.64067,305.47579l-1.83345,1.81799" id="ID0.8581482088193297" fill="none" stroke="#5e154d" stroke-width="1.2" stroke-linecap="round"/><path d="M402.80723,295.908l1.83345,1.81799" id="ID0.3566857478581369" fill="none" stroke="#5e154d" stroke-width="1.2" stroke-linecap="round"/></g></g><g data-paper-data="{&quot;index&quot;:null,&quot;origPos&quot;:null}" id="Group" stroke="none" stroke-width="1" stroke-linecap="butt" stroke-linejoin="miter"><path d="M475.92363,339.97355h-77.20872v-5.90426c-0.1781,-1.21042 0.41871,-2.40337 1.49472,-2.98708l8.34863,-5.81991l2.3691,-15.16189c0.13643,-1.16371 1.07365,-2.07069 2.24207,-2.16982h60.76584c1.26923,0 1.98836,0.70434 1.98836,2.18394z" id="Path" fill="#f7c1d8"/><path d="M475.92363,339.59315v12.47053h-8.54589c-0.18852,-4.70022 -4.0567,-8.41349 -8.76432,-8.41349c-4.70762,0 -8.5758,3.71327 -8.76432,8.41349h-24.72094c0.09644,-2.26022 -0.73896,-4.46096 -2.31163,-6.08841c-1.57268,-1.62745 -3.74485,-2.5388 -6.00877,-2.52132c-2.29685,-0.03058 -4.50901,0.86598 -6.13613,2.48638c-1.62712,1.6204 -2.53141,3.82786 -2.50822,6.12336h-9.4485v-12.47053z" id="Path" fill="#da53d6"/></g><path d="M439.17506,303.87186h1.76254v4.07216h-1.76254v-4.07216" data-paper-data="{&quot;index&quot;:null,&quot;origPos&quot;:null}" id="Path" fill="#5e154d" stroke="#5e154d" stroke-width="1.512" stroke-linecap="round" stroke-linejoin="round"/><path d="M462.95105,303.82952h1.76254v4.07216h-1.76254v-4.07216" data-paper-data="{&quot;index&quot;:null,&quot;origPos&quot;:null}" id="Path" fill="#5e154d" stroke="#5e154d" stroke-width="1.512" stroke-linecap="round" stroke-linejoin="round"/><g data-paper-data="{&quot;index&quot;:null,&quot;origPos&quot;:null}" id="Group" stroke-linecap="butt"><path d="M414.4484,314.4088l-3.41284,13.65407c-0.29471,-0.207 -0.47281,-0.54204 -0.4792,-0.90194l1.63552,-11.27287c0.18348,-1.24 0.81793,-1.40902 1.49505,-1.40902z" id="Path" fill="#b3e0d7" stroke="none" stroke-width="1" stroke-linejoin="miter"/><path d="M416.7187,315.70492v11.47013c0,0.67713 -0.54909,1.22588 -1.22689,1.22588h-3.27171l3.4693,-13.90778c0.5911,0.10216 1.02459,0.61227 1.0293,1.21177z" id="Path" fill="#b3e0d7" stroke="none" stroke-width="1" stroke-linejoin="miter"/><path d="M415.68941,314.49315l-3.4693,13.90778h-0.39485c-0.28564,0.00235 -0.56388,-0.09208 -0.7897,-0.26749l3.41284,-13.6544h1.04341z" id="Path" fill="#d4fff5" stroke="none" stroke-width="1" stroke-linejoin="miter"/><path d="M416.7187,315.70492v11.41401c0,0.67679 -0.54909,1.22588 -1.22689,1.22588h-3.66656c-0.28564,0.00202 -0.56388,-0.09241 -0.7897,-0.26783c-0.29471,-0.207 -0.47281,-0.54204 -0.4792,-0.90194l1.63552,-11.27287c0.18348,-1.24 0.81793,-1.40902 1.49505,-1.40902h2.00248c0.5911,0.10216 1.02459,0.61227 1.0293,1.21177z" id="Path" fill="none" stroke="#5e154d" stroke-width="1.512" stroke-linejoin="round"/></g><g data-paper-data="{&quot;index&quot;:null,&quot;origPos&quot;:null}" id="Group" stroke-linejoin="miter"><path d="M457.83246,317.30683h6.79746l-3.77947,15.09166h-3.01799v-15.09166" id="Path" fill="#b3e0d7" stroke="none" stroke-width="1" stroke-linecap="butt"/><path d="M464.62992,317.30683h2.0307l-3.77947,15.09166h-2.0307l3.77947,-15.09166" id="Path" fill="#d4fff5" stroke="none" stroke-width="1" stroke-linecap="butt"/><path d="M467.80283,317.30683h1.15632l-3.77947,15.09166h-1.14221l3.76535,-15.09166" id="Path" fill="#d4fff5" stroke="none" stroke-width="1" stroke-linecap="butt"/><path d="M466.66062,317.30683h1.14221l-3.76535,15.09166h-1.15632l3.77947,-15.09166" id="Path" fill="#b3e0d7" stroke="none" stroke-width="1" stroke-linecap="butt"/><path d="M469.42457,317.30683v15.09166h-4.24489l3.77947,-15.09166h0.46542" id="Path" fill="#b3e0d7" stroke="none" stroke-width="1" stroke-linecap="butt"/><g id="Path" stroke="#5e154d" stroke-width="1.512"><path d="M441.47426,332.39849h29.47325v1.5216h-29.47325v-1.5216" id="ID0.42276911018416286" fill="#996cd4" stroke-linecap="round"/><path d="M469.53714,311.64217l1.241,5.66466h-14.5392h-0.04234h-14.55332l1.241,-5.66466h13.31231h0.04234h13.2982" id="ID0.10764920059591532" fill="#ea3681" stroke-linecap="butt"/><path d="M443.01132,317.30683h14.82114v15.09166h-14.82114v-15.09166" id="ID0.4188902652822435" fill="#43c3d7" stroke-linecap="round"/><path d="M443.01132,333.92009h1.41037v2.39564h-1.41037v-2.39564" id="ID0.27370519330725074" fill="#5e154d" stroke-linecap="round"/><path d="M468.19768,333.92009h1.41003v2.39564h-1.41003v-2.39564" id="ID0.768521741963923" fill="#5e154d" stroke-linecap="round"/><path d="M457.83246,317.30683h11.59211v15.09166h-11.59211v-15.09166" id="ID0.8529659123159945" fill="none" stroke-linecap="round"/></g></g><g data-paper-data="{&quot;index&quot;:null,&quot;origPos&quot;:null}" id="Group" stroke-linecap="butt"><path d="M436.52268,315.70492v32.08531c-0.00739,0.66604 -0.54607,1.20438 -1.21278,1.21177h-7.82642c-0.7934,-4.05905 -4.0362,-7.19265 -8.12281,-7.8486v-25.44848c0,-0.67679 0.54909,-1.22588 1.22689,-1.22588h14.75057c0.661,0.02285 1.18488,0.56522 1.18455,1.22588z" id="Path" fill="#fc9fe4" stroke="#5e154d" stroke-width="1.512" stroke-linejoin="round"/><path d="M421.89879,317.45234h4.32957l-2.77806,11.11796h-1.55151v-11.11796" id="Path" fill="#b3e0d7" stroke="none" stroke-width="1" stroke-linejoin="miter"/><path d="M426.22836,317.45234h2.0307l-2.76395,11.11796h-2.04482l2.77806,-11.11796" id="Path" fill="#d4fff5" stroke="none" stroke-width="1" stroke-linejoin="miter"/><path d="M428.25906,317.45234h1.14221l-2.76395,11.11796h-1.14221l2.76395,-11.11796" id="Path" fill="#b3e0d7" stroke="none" stroke-width="1" stroke-linejoin="miter"/><path d="M429.40127,317.45234h1.15632l-2.76395,11.11796h-1.15632l2.76395,-11.11796" id="Path" fill="#d4fff5" stroke="none" stroke-width="1" stroke-linejoin="miter"/><path d="M434.02656,317.45234v11.11796h-6.23291l2.76395,-11.11796h3.46896" id="Path" fill="#b3e0d7" stroke="none" stroke-width="1" stroke-linejoin="miter"/><path d="M421.89879,332.38874h1.41037v3.02976h-1.41037v-3.02976" id="Path" fill="none" stroke="#d974e8" stroke-width="1.512" stroke-linejoin="round"/></g><g data-paper-data="{&quot;index&quot;:null,&quot;origPos&quot;:null}" id="Group" stroke-linejoin="miter"><g id="Path" stroke-linecap="butt"><path d="M396.93926,340.62177h1.80488v3.64942h-1.80488v-3.64942" id="ID0.9831489627249539" fill="#f7c1d8" stroke="#5e154d" stroke-width="2.016"/><path d="M403.53913,344.25708h2.8204v1.56428h-2.8204v-1.56428" id="ID0.4489393848925829" fill="none" stroke="#fc9fe4" stroke-width="1.512"/><path d="M475.93908,340.62177h1.86134v3.64942h-1.86134v-3.64942" id="ID0.971949434839189" fill="#8b49d4" stroke="#5e154d" stroke-width="2.016"/><path d="M412.02856,332.37832h3.65244" id="ID0.873818903695792" fill="none" stroke="#000000" stroke-width="2.016"/><path d="M415.681,333.98494h-3.65244" id="ID0.6532654212787747" fill="none" stroke="#000000" stroke-width="2.016"/><path d="M412.02856,335.60534h3.65244" id="ID0.981722607742995" fill="none" stroke="#000000" stroke-width="2.016"/><path d="M475.93908,310.11452v41.94916h-8.71525c-0.12669,-4.18507 -3.76502,-8.72231 -8.58823,-8.72231c-4.82758,0 -8.74819,3.89809 -8.77137,8.72231h-24.69272c-0.09745,-4.56849 -3.66017,-8.31133 -8.22161,-8.63796c-2.31331,-0.02991 -4.54262,0.86632 -6.19057,2.48906c-1.64795,1.62275 -2.57711,3.83693 -2.5808,6.1489h-9.4485v-17.99439c-0.17777,-1.21042 0.41904,-2.40337 1.49505,-2.98708l8.3483,-5.81991l2.3691,-15.16189c0.13677,-1.16371 1.07399,-2.07069 2.24241,-2.16982h60.76584c1.26923,0 1.98836,0.70434 1.98836,2.18394z" id="ID0.4050336927175522" fill="none" stroke="#5e154d" stroke-width="2.016"/></g><path d="M399.74555,347.68135h2.15773v4.38233h-4.32957v-7.8066h2.17184v3.42427" id="Path" fill="#d974e8" stroke="#5e154d" stroke-width="2.016" stroke-linecap="butt"/><path d="M409.64501,352.65545h-2.10094c-0.33537,-3.48241 1.33476,-6.85358 4.30941,-8.69845c2.97465,-1.84521 6.73899,-1.84521 9.71364,0c2.97465,1.84487 4.64478,5.21605 4.30941,8.69845h-2.10094c0.07863,-3.97874 -3.06975,-7.27599 -7.05117,-7.38386c-3.99252,0.09241 -7.15803,3.39436 -7.0794,7.38386z" id="Path" fill="#fdbb38" stroke="#5e154d" stroke-width="1.512" stroke-linecap="butt"/><path d="M451.31694,352.65545h-2.08716c-0.33537,-3.48241 1.33476,-6.85358 4.30941,-8.69845c2.97465,-1.84521 6.73899,-1.84521 9.71364,0c2.97465,1.84487 4.64478,5.21605 4.30941,8.69845h-2.10094c0.07124,-3.97605 -3.07311,-7.26859 -7.05117,-7.38386c-3.99453,0.09241 -7.16408,3.39201 -7.09318,7.38386z" id="Path" fill="#fdbb38" stroke="#5e154d" stroke-width="1.512" stroke-linecap="butt"/><path d="M400.74662,350.739v-1.97257" id="Path" fill="none" stroke="#ffffff" stroke-width="1.512" stroke-linecap="round"/></g><g data-paper-data="{&quot;index&quot;:null,&quot;origPos&quot;:null}" id="Group" stroke-linejoin="miter"><g id="Path" fill="none" stroke="#ffffff" stroke-width="2.52" stroke-linecap="butt"><path d="M470.5157,309.63801h1.88957c0.47046,-0.04167 0.93487,0.13106 1.26318,0.47046c0.32865,0.33907 0.48625,0.80852 0.42913,1.27696v2.11371" id="ID0.4481486948207021"/><path d="M469.24647,309.63801h-1.12809" id="ID0.941056695766747"/></g><g id="Path" fill="none" stroke="#cc48cc" stroke-width="1.512" stroke-linecap="butt"><path d="M439.43012,342.80907l1.05752,-0.73291" id="ID0.6005543484352529"/><path d="M445.62102,342.66794l-0.3105,-1.25411" id="ID0.4862700654193759"/><path d="M442.44777,346.47261l0.15525,-1.28234" id="ID0.5806826669722795"/><path d="M431.32142,350.6859l1.21278,-0.45097" id="ID0.9247706397436559"/><path d="M401.89051,342.24519l1.17043,-0.54943" id="ID0.691093638073653"/><path d="M404.75291,349.61494l0.38107,-1.24" id="ID0.1760742710903287"/><path d="M408.39124,341.97771l0.6489,1.11297" id="ID0.7037871237844229"/><path d="M414.92054,341.2448l-1.28301,0.08468" id="ID0.4898304417729378"/><path d="M421.73212,343.44319l-0.95906,-0.87371" id="ID0.2831874620169401"/><path d="M425.58182,346.28946v1.29645" id="ID0.4919192739762366"/><path d="M446.0861,349.40357l-0.31017,-1.25411" id="ID0.5800011861138046"/><path d="M447.87721,345.41575l1.05752,-0.73257" id="ID0.6567207644693553"/><path d="M451.74102,341.51262l0.76181,1.05685" id="ID0.7055223379284143"/><path d="M458.48203,341.35771l-1.29746,-0.07057" id="ID0.0824348172172904"/><path d="M463.99581,341.4844l-0.8885,0.95806" id="ID0.6544937780126929"/><path d="M467.2534,343.56987l1.04375,0.7608" id="ID0.24635779950767756"/><path d="M471.59675,341.73811l-1.21278,0.45097" id="ID0.8660611789673567"/><path d="M473.02123,345.68358l0.21137,-1.26822" id="ID0.8824515249580145"/><path d="M473.00712,349.78397l-0.59244,-1.1412" id="ID0.42036384297534823"/><path d="M468.91748,347.8114l1.05752,-0.74702" id="ID0.9695621458813548"/><path d="M440.85426,349.20631l-1.21278,-0.42274" id="ID0.4771922663785517"/></g><path d="M421.90115,317.44461h12.12776v11.10351h-12.12776v-11.10351" id="Path" fill="none" stroke="#5e154d" stroke-width="1.512" stroke-linecap="butt"/><g id="Path" stroke="#5e154d" stroke-width="1.512" stroke-linecap="butt"><path d="M444.83065,317.2991v1.6204c0,0.89522 -0.72619,1.62073 -1.62174,1.62073c-0.89555,0 -1.62174,-0.72552 -1.62174,-1.62073v-1.6204z" id="ID0.6596818347461522" fill="#ffffff"/><path d="M448.11647,317.2991v1.6204c0.05746,0.6126 -0.23725,1.20471 -0.76046,1.52866c-0.52355,0.32394 -1.18522,0.32394 -1.70844,0c-0.52322,-0.32394 -0.81793,-0.91605 -0.76046,-1.52866v-1.6204z" id="ID0.5556301730684936" fill="#f7c1d8"/><path d="M451.35995,317.2991v1.6204c0,0.89522 -0.72619,1.62073 -1.62174,1.62073c-0.89555,0 -1.62174,-0.72552 -1.62174,-1.62073v-1.6204z" id="ID0.26920914044603705" fill="#ffffff"/><path d="M454.58931,317.2991v1.6204c0.05746,0.6126 -0.23725,1.20471 -0.76046,1.52866c-0.52355,0.32394 -1.18522,0.32394 -1.70844,0c-0.52322,-0.32394 -0.81793,-0.91605 -0.76046,-1.52866v-1.6204z" id="ID0.812977438326925" fill="#f7c1d8"/><path d="M457.83279,317.2991v1.6204c0,0.89522 -0.72619,1.62073 -1.62174,1.62073c-0.89555,0 -1.62174,-0.72552 -1.62174,-1.62073v-1.6204z" id="ID0.03290513390675187" fill="#ffffff"/><path d="M461.07627,317.2991v1.6204c0,0.89522 -0.72619,1.62073 -1.62174,1.62073c-0.89555,0 -1.62174,-0.72552 -1.62174,-1.62073v-1.6204z" id="ID0.5077857878059149" fill="#f7c1d8"/><path d="M464.30564,317.2991v1.6204c0.05746,0.6126 -0.23725,1.20471 -0.76046,1.52866c-0.52355,0.32394 -1.18522,0.32394 -1.70844,0c-0.52322,-0.32394 -0.81793,-0.91605 -0.76046,-1.52866v-1.6204z" id="ID0.5545902908779681" fill="#ffffff"/><path d="M467.54912,317.2991v1.6204c0,0.89522 -0.72619,1.62073 -1.62174,1.62073c-0.89555,0 -1.62174,-0.72552 -1.62174,-1.62073v-1.6204z" id="ID0.2132140714675188" fill="#f7c1d8"/><path d="M470.77848,317.2991v1.6204c0.05746,0.6126 -0.23725,1.20471 -0.76046,1.52866c-0.52355,0.32394 -1.18522,0.32394 -1.70844,0c-0.52322,-0.32394 -0.81793,-0.91605 -0.76046,-1.52866v-1.6204z" id="ID0.23837941559031606" fill="#ffffff"/></g><path d="M416.68342,346.62719c1.54445,0 2.94407,0.62672 3.95757,1.63955c1.0135,1.0125 1.64089,2.4111 1.64089,3.95454c0,1.54344 -0.62739,2.94171 -1.64089,3.95454c-1.0135,1.01283 -2.41312,1.63955 -3.95757,1.63955c-1.54445,0 -2.94407,-0.62672 -3.95757,-1.63955c-1.0135,-1.01283 -1.64089,-2.4111 -1.64089,-3.95454c0,-1.54344 0.62739,-2.94205 1.64089,-3.95454c1.0135,-1.01283 2.41312,-1.63955 3.95757,-1.63955z" id="Oval" fill="#5e154d" stroke="#5e154d" stroke-width="2.016" stroke-linecap="round"/></g><path d="M416.69619,349.25907c0.82095,0 1.56495,0.33302 2.10362,0.87136c0.53868,0.53834 0.87203,1.28166 0.87203,2.10194c0,0.82028 -0.33335,1.5636 -0.87203,2.10161c-0.53868,0.53834 -1.28267,0.87136 -2.10362,0.87136c-0.82095,0 -1.56495,-0.33302 -2.10329,-0.87136c-0.53868,-0.538 -0.87237,-1.28133 -0.87237,-2.10161c0,-0.82028 0.33369,-1.5636 0.87237,-2.10194c0.53834,-0.53834 1.28234,-0.87136 2.10329,-0.87136z" data-paper-data="{&quot;index&quot;:null,&quot;origPos&quot;:null}" id="Oval" fill="#c5a2fc" stroke="#c5a2fc" stroke-width="1.008" stroke-linecap="butt" stroke-linejoin="miter"/><path d="M416.69619,350.48495c0.48256,0 0.91975,0.19591 1.2363,0.51213c0.31655,0.31622 0.51246,0.75307 0.51246,1.23529c0,0.48188 -0.19591,0.91874 -0.51246,1.23496c-0.31655,0.31655 -0.75374,0.51213 -1.2363,0.51213c-0.48256,0 -0.91975,-0.19558 -1.2363,-0.51213c-0.31655,-0.31622 -0.51246,-0.75307 -0.51246,-1.23496c0,-0.48222 0.19591,-0.91908 0.51246,-1.23529c0.31655,-0.31622 0.75374,-0.51213 1.2363,-0.51213z" data-paper-data="{&quot;index&quot;:null,&quot;origPos&quot;:null}" id="Oval" fill="#ffffff" stroke="#8b49d4" stroke-width="1.512" stroke-linecap="round" stroke-linejoin="round"/><path d="M458.41011,346.63827c1.54445,0 2.94407,0.62672 3.95757,1.63921c1.0135,1.01283 1.64089,2.41144 1.64089,3.95488c0,1.54311 -0.62739,2.94171 -1.64089,3.95454c-1.0135,1.0125 -2.41312,1.63955 -3.95757,1.63955c-1.54445,0 -2.94407,-0.62705 -3.95757,-1.63955c-1.0135,-1.01283 -1.64089,-2.41144 -1.64089,-3.95454c0,-1.54344 0.62739,-2.94205 1.64089,-3.95488c1.0135,-1.0125 2.41312,-1.63921 3.95757,-1.63921z" data-paper-data="{&quot;index&quot;:null,&quot;origPos&quot;:null}" id="Oval" fill="#5e154d" stroke="#5e154d" stroke-width="2.016" stroke-linecap="round" stroke-linejoin="round"/><path d="M458.41011,349.25907c0.82095,0 1.56495,0.33302 2.10362,0.87136c0.53834,0.53834 0.87203,1.28166 0.87203,2.10194c0,0.82028 -0.33369,1.5636 -0.87203,2.10161c-0.53868,0.53834 -1.28267,0.87136 -2.10362,0.87136c-0.82095,0 -1.56495,-0.33302 -2.10329,-0.87136c-0.53868,-0.538 -0.87237,-1.28133 -0.87237,-2.10161c0,-0.82028 0.33369,-1.5636 0.87237,-2.10194c0.53834,-0.53834 1.28234,-0.87136 2.10329,-0.87136z" data-paper-data="{&quot;index&quot;:null,&quot;origPos&quot;:null}" id="Oval" fill="#c5a2fc" stroke="#c5a2fc" stroke-width="1.008" stroke-linecap="butt" stroke-linejoin="miter"/><path d="M458.41011,350.48495c0.48256,0 0.91975,0.19591 1.2363,0.51213c0.31655,0.31622 0.51246,0.75307 0.51246,1.23529c0,0.48188 -0.19591,0.91874 -0.51246,1.23496c-0.31655,0.31655 -0.75374,0.51213 -1.2363,0.51213c-0.48256,0 -0.91975,-0.19558 -1.2363,-0.51213c-0.31655,-0.31622 -0.51246,-0.75307 -0.51246,-1.23496c0,-0.48222 0.19591,-0.91908 0.51246,-1.23529c0.31655,-0.31622 0.75374,-0.51213 1.2363,-0.51213z" data-paper-data="{&quot;index&quot;:null,&quot;origPos&quot;:null}" id="Oval" fill="#ffffff" stroke="#8b49d4" stroke-width="1.512" stroke-linecap="round" stroke-linejoin="round"/><g data-paper-data="{&quot;index&quot;:null,&quot;origPos&quot;:null}" id="Group"><g id="Path" fill="#ffffff" stroke="none" stroke-width="1" stroke-linecap="butt" stroke-linejoin="miter"><path d="M447.82411,323.66341v0.50709h-1.04341v-0.50709c0,-0.26783 0.29605,-0.14114 0.29605,-0.3804v-0.35251h0.46542v0.35251c0,0.23926 0.28194,0.08435 0.28194,0.3804z" id="ID0.5353642306290567"/><path d="M446.7807,325.41049h-0.19759c-0.11896,-0.00739 -0.21171,-0.10619 -0.21137,-0.22548v-0.78903c-0.00034,-0.11929 0.09241,-0.21809 0.21137,-0.22548h0.19759z" id="ID0.828804534394294"/><path d="M446.7807,325.41049v-1.24h1.241c0.12434,0 0.22548,0.10115 0.22548,0.22548v0.78903c0,0.12467 -0.10115,0.22548 -0.22548,0.22548h-0.71947z" id="ID0.13529655151069164"/></g><path d="M446.45575,327.2846c0,0.67645 0,3.71999 0,4.90386h-0.22582c-0.38074,0 -0.54977,-0.26783 -0.54977,-0.69057v-3.69176c0,-0.4792 0,-0.94428 0.35251,-1.09919c0.29034,-0.08132 0.47651,-0.3636 0.43719,-0.66234v-0.63411h0.31017v0.97251c0,0.5212 -0.33839,0.45063 -0.32428,0.9016z" id="Path" fill="#f7c1d8" stroke="none" stroke-width="1" stroke-linecap="butt" stroke-linejoin="miter"/><path d="M448.92364,327.73556v3.76233c0,0.42274 -0.16937,0.69057 -0.53599,0.69057h-1.93191v-4.90386c0,-0.45097 0.33839,-0.3804 0.33839,-0.9016v-0.97251h1.41037v0.63411c-0.03932,0.29874 0.14685,0.58102 0.43719,0.66234c0.28194,0.15492 0.28194,0.54943 0.28194,1.02863z" id="Path" fill="#ea3681" stroke="none" stroke-width="1" stroke-linecap="butt" stroke-linejoin="miter"/><path d="M446.37107,324.17049h1.87579v1.40902h-1.87579z" id="Rectangle" fill="none" stroke="#663c1d" stroke-width="1.008" stroke-linecap="round" stroke-linejoin="round"/><path d="M447.82378,323.66341v0.50709h-1.04375v-0.50709c0,-0.26783 0.29605,-0.14114 0.29605,-0.3804v-0.35251h0.46542v0.35251c0,0.23926 0.28228,0.08435 0.28228,0.3804z" id="Path" fill="none" stroke="#663c1d" stroke-width="1.008" stroke-linecap="round" stroke-linejoin="round"/><path d="M448.92364,327.73556v3.76233c0,0.42274 -0.16937,0.69057 -0.53599,0.69057h-2.15773c-0.38074,0 -0.54977,-0.26783 -0.54977,-0.69057v-3.69176c0,-0.4792 0,-0.94428 0.35251,-1.09919c0.29034,-0.08132 0.47651,-0.3636 0.43719,-0.66234v-0.63411h1.73465v0.63411c-0.03932,0.29874 0.14685,0.58102 0.43719,0.66234c0.28194,0.15492 0.28194,0.54943 0.28194,1.02863z" id="Path" fill="none" stroke="#663c1d" stroke-width="1.008" stroke-linecap="round" stroke-linejoin="round"/></g><g data-paper-data="{&quot;index&quot;:null,&quot;origPos&quot;:null}" id="Group"><g id="Path" fill="#ffffff" stroke="none" stroke-width="1" stroke-linecap="butt" stroke-linejoin="miter"><path d="M452.0159,323.66341v0.50709h-1.04341v-0.50709c0,-0.26783 0.28194,-0.14114 0.28194,-0.3804v-0.35251h0.46542v0.35251c0,0.23926 0.29605,0.08435 0.29605,0.3804z" id="ID0.5415528495796025"/><path d="M450.97249,325.41049h-0.19759c-0.12467,0 -0.22548,-0.10081 -0.22548,-0.22548v-0.78903c0,-0.12434 0.10081,-0.22548 0.22548,-0.22548h0.19759z" id="ID0.8399107838049531"/><path d="M450.94427,325.41049v-1.24h1.241c0.11896,0.00739 0.21171,0.10619 0.21137,0.22548v0.78903c0.00034,0.11929 -0.09241,0.21809 -0.21137,0.22548h-0.71913z" id="ID0.8566809166222811"/></g><path d="M450.64754,327.2846c0,0.67645 0,3.71999 0,4.90386h-0.2396c-0.36662,0 -0.53599,-0.26783 -0.53599,-0.69057v-3.69176c0,-0.4792 0,-0.94428 0.35251,-1.09919c0.29034,-0.08132 0.47651,-0.3636 0.43719,-0.66234v-0.63411h0.31017v0.97251c0,0.5212 -0.33839,0.45063 -0.32428,0.9016z" id="Path" fill="#fde982" stroke="none" stroke-width="1" stroke-linecap="butt" stroke-linejoin="miter"/><path d="M453.04486,327.73556v3.76233c0,0.42274 -0.16903,0.69057 -0.5501,0.69057h-1.91779v-4.90386c0,-0.45097 0.33839,-0.3804 0.33839,-0.9016v-0.97251h1.41037v0.63411c-0.03932,0.29874 0.14685,0.58102 0.43719,0.66234c0.35251,0.15492 0.35251,0.54943 0.28194,1.02863z" id="Path" fill="#fdbb38" stroke="none" stroke-width="1" stroke-linecap="butt" stroke-linejoin="miter"/><path d="M450.54874,324.17049h1.87579v1.40902h-1.87579z" id="Rectangle" fill="none" stroke="#663c1d" stroke-width="1.008" stroke-linecap="round" stroke-linejoin="round"/><path d="M452.01557,323.66341v0.50709h-1.04375v-0.50709c0,-0.26783 0.28228,-0.14114 0.28228,-0.3804v-0.35251h0.46508v0.35251c0,0.23926 0.29639,0.08435 0.29639,0.3804z" id="Path" fill="none" stroke="#663c1d" stroke-width="1.008" stroke-linecap="round" stroke-linejoin="round"/><path d="M453.11543,327.73556v3.76233c0,0.42274 -0.16937,0.69057 -0.5501,0.69057h-2.15739c-0.36662,0 -0.53599,-0.26783 -0.53599,-0.69057v-3.69176c0,-0.4792 0,-0.94428 0.35251,-1.09919c0.29034,-0.08132 0.47651,-0.3636 0.43719,-0.66234v-0.63411h1.66408v0.63411c-0.03932,0.29874 0.14685,0.58102 0.43719,0.66234c0.35251,0.15492 0.35251,0.54943 0.35251,1.02863z" id="Path" fill="none" stroke="#663c1d" stroke-width="1.008" stroke-linecap="round" stroke-linejoin="round"/></g><text transform="translate(428,303) scale(0.5,0.5)" font-size="40" xml:space="preserve" data-paper-data="{&quot;origPos&quot;:null}" fill="#ffb672" fill-rule="nonzero" stroke="none" stroke-width="1" stroke-linecap="butt" stroke-linejoin="miter" stroke-miterlimit="10" stroke-dasharray="" stroke-dashoffset="0" font-family="Marker" font-weight="normal" text-anchor="start" style="mix-blend-mode: normal"><tspan x="0" dy="0">Shop</tspan></text></g></g></svg>