<svg version="1.1" xmlns="http://www.w3.org/2000/svg" xmlns:xlink="http://www.w3.org/1999/xlink" width="54.23572" height="75.22003" viewBox="0,0,54.23572,75.22003"><g transform="translate(-215.83216,-142.51199)"><g data-paper-data="{&quot;isPaintingLayer&quot;:true}" fill="none" fill-rule="nonzero" stroke="none" stroke-width="1" stroke-linecap="butt" stroke-linejoin="miter" stroke-miterlimit="10" stroke-dasharray="" stroke-dashoffset="0" font-family="none" font-weight="none" font-size="none" text-anchor="none" style="mix-blend-mode: normal"><path d="M269.61955,194.26134c-0.00867,0.15247 -0.02602,0.30495 -0.05204,0.45742c-0.25153,2.07363 -0.92804,3.88298 -2.08159,6.49535c-2.35913,5.49919 -6.14069,9.8091 -11.24058,12.80773c-3.85961,2.26677 -7.81463,3.49671 -11.76098,3.67968c-0.53774,0.02033 -1.0061,0.03049 -1.47446,0.03049c-12.84514,0 -19.93989,-7.08491 -23.62603,-13.03136c-0.66784,-1.06731 -1.15355,-2.2566 -1.45711,-3.50688c-1.42242,-3.54754 -2.05557,-7.07475 -1.8821,-10.51047c0.06939,-1.44341 0.28622,-3.06979 0.67652,-4.99095c0.01735,-1.44341 0.27755,-2.86649 0.76325,-4.19809c0.5204,-1.43325 1.08416,-2.79534 1.68262,-4.09644c-0.86733,-1.28077 -1.57854,-2.67336 -2.12496,-4.1676c-0.02602,-0.07115 -0.05204,-0.14231 -0.07806,-0.21346c-1.50915,-4.3404 -1.50915,-8.92475 0,-13.26515c0.02602,-0.08132 0.06071,-0.16264 0.08673,-0.23379c1.79537,-4.82831 4.92643,-8.92475 9.31511,-12.15718c4.21522,-3.11045 8.39574,-4.74699 12.42015,-4.84864h4.40603c4.4494,0 8.48247,1.08764 11.98648,3.24259c4.99581,3.04946 8.39574,7.93876 9.80949,14.13933c0.58111,2.44973 1.11885,5.672 0.27755,9.10772c-0.15612,0.69121 -0.34693,1.36209 -0.56376,2.02281c4.38868,5.48903 5.39478,10.99839 5.36009,15.01351c0.02602,1.32143 -0.01735,3.53737 -0.44234,8.22338z" data-paper-data="{&quot;origPos&quot;:null}" id="ID0.3700250615365803" fill="#ffb900"/><path d="M260.51346,186.11013c0.04944,1.25434 -0.07632,3.58312 -0.38076,6.98631c-0.05291,0.41879 -0.43366,1.43223 -1.14487,3.04438c-1.42502,3.34424 -3.76421,5.97084 -7.01842,7.88286c-2.64535,1.55218 -5.26382,2.38874 -7.85887,2.50767c-7.67933,0.29986 -13.35079,-2.50361 -17.01265,-8.40533c0,-0.1789 -0.02602,-0.38627 -0.07632,-0.62616c-1.06768,-2.26372 -1.55165,-4.32007 -1.44931,-6.16804c0.05031,-1.13135 0.33045,-2.77196 0.83957,-4.91776c-0.05204,-0.11893 -0.10234,-0.29783 -0.15265,-0.53569c1.77976,-4.88829 4.0166,-8.49478 6.71312,-10.8205c-3.81451,-1.54811 -6.20574,-3.63496 -7.17194,-6.25749c-0.56029,-1.61012 -0.56029,-3.21921 0,-4.82831c1.01738,-2.74147 2.89948,-5.12614 5.64544,-7.15302c2.74683,-2.02484 5.26382,-3.06979 7.55357,-3.12875c0.50739,0 1.29666,0 2.36521,0c0.60973,0 1.22033,0 1.83093,0c2.89861,0 5.41647,0.65665 7.5527,1.96995c2.64362,1.61215 4.3219,4.00089 5.03571,7.16522c0.35387,1.49424 0.45708,2.53918 0.3053,3.13485c-0.71294,3.04539 -2.56989,5.73299 -5.56998,8.06176c0.6106,0.29885 1.42329,0.71662 2.44066,1.25333c0.76412,0.23989 1.78063,0.7461 3.053,1.5227c3.10157,2.98441 4.60205,6.08774 4.50057,9.31204zM255.25225,192.31476c0.40504,-2.80144 0.608,-4.58842 0.608,-5.364c0,-2.38366 -0.68606,-4.29262 -2.0547,-5.7218c-2.02868,-2.02586 -5.37397,-3.39812 -10.03846,-4.11372c-0.3556,-0.29783 -0.78667,-0.59566 -1.29319,-0.89349c-0.9133,-0.11893 -1.49788,-0.14841 -1.75027,-0.08945c-2.02955,0.29783 -4.15797,1.93742 -6.38788,4.91776c-2.48576,3.27817 -3.72778,6.55736 -3.72778,9.83553c0,3.51704 1.36778,6.29002 4.1068,8.31486c2.38342,1.78902 5.17188,2.68251 8.36625,2.68251c0.9636,0 1.8769,-0.08945 2.73816,-0.26835c1.72338,-0.1789 3.59941,-1.19132 5.6281,-3.0393c2.2325,-2.02687 3.49967,-4.11474 3.80497,-6.26054zM250.44291,161.4034c-0.56029,-0.89959 -1.60196,-1.72498 -3.12759,-2.47616c-1.52563,-0.74813 -2.82229,-1.09374 -3.88997,-1.0358c-0.86559,0.06099 -1.98358,0.2094 -3.35656,0.44929c-0.40851,0.11995 -1.42502,0.4808 -3.05213,1.07951c-1.11972,0.4808 -2.36607,1.4119 -3.73905,2.78924c-1.62798,1.6213 -2.39123,3.00169 -2.28888,4.14117c0.3053,3.35949 3.15361,5.09971 8.54492,5.21966c2.44066,-0.05997 4.42511,-0.35984 5.95074,-0.89959c0.81269,-0.23989 1.80404,-0.59973 2.97494,-1.07951c1.88124,-1.43935 2.82315,-3.20905 2.82315,-5.31114c0,-1.0175 -0.28101,-1.97808 -0.83957,-2.87666z" id="ID0.5748317488469183" fill="#ffffff"/></g></g></svg>