<svg version="1.1" xmlns="http://www.w3.org/2000/svg" xmlns:xlink="http://www.w3.org/1999/xlink" width="483.1" height="259.97198"><g transform="translate(1.05,-50.01401)"><g data-paper-data="{&quot;isPaintingLayer&quot;:true}" fill-rule="nonzero" stroke="none" stroke-width="1" stroke-linecap="butt" stroke-linejoin="miter" stroke-miterlimit="10" stroke-dasharray="" stroke-dashoffset="0" style="mix-blend-mode: normal"><path d="M-1.05,50.01401h483.1v259.97198h-483.1z" data-paper-data="{&quot;origPos&quot;:null}" id="ID0.9805615041404963" fill="#e7f5f5"/><g data-paper-data="{&quot;origPos&quot;:null}" id="ID0.4563788389787078" fill="#a3def8"><g id="ID0.02407592535018921"><path d="M24.63431,61.03478h432.34941v6.10078h-432.34941z" id="ID0.6895429524593055"/></g><g id="ID0.3153572380542755"><path d="M23.5123,64.97077h11.59415v28.53591h-11.59415z" id="ID0.8587536937557161"/></g><g id="ID0.500053140334785"><path d="M51.56265,64.97077h11.59415v28.53591h-11.59415z" id="ID0.686961165163666"/></g><g id="ID0.9283221065998077"><path d="M79.613,64.97077h11.59415v28.53591h-11.59415z" id="ID0.8555283998139203"/></g><g id="ID0.5164866736158729"><path d="M107.66335,64.97077h11.59415v28.53591h-11.59415z" id="ID0.8347138082608581"/></g><g id="ID0.9962534601800144"><path d="M135.3397,64.97077h11.59415v28.53591h-11.59415z" id="ID0.42499831691384315"/></g><g id="ID0.5417190161533654"><path d="M163.39005,64.97077h11.59415v28.53591h-11.59415z" id="ID0.3017918039113283"/></g><g id="ID0.05482932925224304"><path d="M191.4404,64.97077h11.59415v28.53591h-11.59415z" id="ID0.8740990841761231"/></g><g id="ID0.850925331003964"><path d="M219.49075,64.97077h11.59415v28.53591h-11.59415z" id="ID0.8697319626808167"/></g><g id="ID0.12834183080121875"><path d="M24.63431,104.33064h11.59415v28.53591h-11.59415z" id="ID0.40989367570728064"/></g><g id="ID0.341739556286484"><path d="M52.31066,104.33064h11.59415v28.53591h-11.59415z" id="ID0.5264815748669207"/></g><g id="ID0.3462742739357054"><path d="M80.36101,104.33064h11.59415v28.53591h-11.59415z" id="ID0.9848535992205143"/></g><g id="ID0.4284281232394278"><path d="M108.41136,104.33064h11.59415v28.53591h-11.59415z" id="ID0.3441256727091968"/></g><g id="ID0.8229453256353736"><path d="M136.46171,104.33064h11.59415v28.53591h-11.59415z" id="ID0.8603811683133245"/></g><g id="ID0.7070941436104476"><path d="M164.13806,104.33064h11.59415v28.53591h-11.59415z" id="ID0.6780886412598193"/></g><g id="ID0.6863960791379213"><path d="M192.18841,104.33064h11.59415v28.53591h-11.59415z" id="ID0.07609295705333352"/></g><g id="ID0.9716828572563827"><path d="M220.23876,104.33064h11.59415v28.53591h-11.59415z" id="ID0.652976063080132"/></g><g id="ID0.5568879819475114"><path d="M24.63431,141.13212h11.59415v28.53591h-11.59415z" id="ID0.5839940067380667"/></g><g id="ID0.30162305664271116"><path d="M52.31066,141.13212h11.59415v28.53591h-11.59415z" id="ID0.3738655801862478"/></g><g id="ID0.696455430239439"><path d="M80.36101,141.13212h11.59415v28.53591h-11.59415z" id="ID0.994355539791286"/></g><g id="ID0.09361659595742822"><path d="M108.41136,141.13212h11.59415v28.53591h-11.59415z" id="ID0.09292380278930068"/></g><g id="ID0.6879514870233834"><path d="M136.46171,141.13212h11.59415v28.53591h-11.59415z" id="ID0.45272211404517293"/></g><g id="ID0.691447417717427"><path d="M164.13806,141.13212h11.59415v28.53591h-11.59415z" id="ID0.706564246211201"/></g><g id="ID0.46185499196872115"><path d="M192.18841,141.13212h11.59415v28.53591h-11.59415z" id="ID0.24752401188015938"/></g><g id="ID0.7345666200853884"><path d="M220.23876,141.13212h11.59415v28.53591h-11.59415z" id="ID0.6498445393517613"/></g><g id="ID0.5274201203137636"><path d="M247.1671,64.97077h11.59415v28.53591h-11.59415z" id="ID0.9282959052361548"/></g><g id="ID0.5446365005336702"><path d="M275.21745,64.97077h11.59415v28.53591h-11.59415z" id="ID0.9434898602776229"/></g><g id="ID0.8158117095008492"><path d="M303.2678,64.97077h11.59415v28.53591h-11.59415z" id="ID0.30646442947909236"/></g><g id="ID0.8035901235416532"><path d="M331.31815,64.97077h11.59415v28.53591h-11.59415z" id="ID0.4760300503112376"/></g><g id="ID0.41162257036194205"><path d="M358.9945,64.97077h11.59415v28.53591h-11.59415z" id="ID0.7661742852069438"/></g><g id="ID0.8375893589109182"><path d="M387.04485,64.97077h11.59415v28.53591h-11.59415z" id="ID0.6655784989707172"/></g><g id="ID0.03236937243491411"><path d="M415.0952,64.97077h11.59415v28.53591h-11.59415z" id="ID0.3406133404932916"/></g><g id="ID0.409982587210834"><path d="M443.14555,64.97077h11.59415v28.53591h-11.59415z" id="ID0.017991815228015184"/></g><g id="ID0.6475474857725203"><path d="M248.28911,104.33064h11.59415v28.53591h-11.59415z" id="ID0.8017428545281291"/></g><g id="ID0.8911274950951338"><path d="M275.96546,104.33064h11.59415v28.53591h-11.59415z" id="ID0.4399424712173641"/></g><g id="ID0.7958338726311922"><path d="M304.01581,104.33064h11.59415v28.53591h-11.59415z" id="ID0.6164455264806747"/></g><g id="ID0.19140496477484703"><path d="M332.06616,104.33064h11.59415v28.53591h-11.59415z" id="ID0.041107872035354376"/></g><g id="ID0.5967671163380146"><path d="M360.11651,104.33064h11.59415v28.53591h-11.59415z" id="ID0.31503996066749096"/></g><g id="ID0.7560883848927915"><path d="M387.79286,104.33064h11.59415v28.53591h-11.59415z" id="ID0.5502900462597609"/></g><g id="ID0.9970372342504561"><path d="M415.84321,104.33064h11.59415v28.53591h-11.59415z" id="ID0.6967723611742258"/></g><g id="ID0.060953733045607805"><path d="M443.89356,104.33064h11.59415v28.53591h-11.59415z" id="ID0.005726697389036417"/></g><g id="ID0.7793514938093722"><path d="M248.28911,141.13212h11.59415v28.53591h-11.59415z" id="ID0.31892565730959177"/></g><g id="ID0.940010251943022"><path d="M275.96546,141.13212h11.59415v28.53591h-11.59415z" id="ID0.3610841208137572"/></g><g id="ID0.2187366085126996"><path d="M304.01581,141.13212h11.59415v28.53591h-11.59415z" id="ID0.4396536983549595"/></g><g id="ID0.26299855951219797"><path d="M332.06616,141.13212h11.59415v28.53591h-11.59415z" id="ID0.782250551506877"/></g><g id="ID0.40356132481247187"><path d="M360.11651,141.13212h11.59415v28.53591h-11.59415z" id="ID0.5609647827222943"/></g><g id="ID0.9676372953690588"><path d="M387.79286,141.13212h11.59415v28.53591h-11.59415z" id="ID0.29182357201352715"/></g><g id="ID0.6443381528370082"><path d="M415.84321,141.13212h11.59415v28.53591h-11.59415z" id="ID0.3712189318612218"/></g><g id="ID0.9970563501119614"><path d="M443.89356,141.13212h11.59415v28.53591h-11.59415z" id="ID0.7424281351268291"/></g><g id="ID0.4026490789838135"><path d="M23.5123,177.93361h11.59415v28.53591h-11.59415z" id="ID0.6054635173641145"/></g><g id="ID0.8339485926553607"><path d="M51.56265,177.93361h11.59415v28.53591h-11.59415z" id="ID0.06156357517465949"/></g><g id="ID0.48999479319900274"><path d="M79.613,177.93361h11.59415v28.53591h-11.59415z" id="ID0.3451434215530753"/></g><g id="ID0.5492134965024889"><path d="M107.66335,177.93361h11.59415v28.53591h-11.59415z" id="ID0.8605943364091218"/></g><g id="ID0.22597739519551396"><path d="M135.3397,177.93361h11.59415v28.53591h-11.59415z" id="ID0.13568456145003438"/></g><g id="ID0.14625848131254315"><path d="M163.39005,177.93361h11.59415v28.53591h-11.59415z" id="ID0.23892581602558494"/></g><g id="ID0.02579132653772831"><path d="M191.4404,177.93361h11.59415v28.53591h-11.59415z" id="ID0.768258667550981"/></g><g id="ID0.45822541136294603"><path d="M219.49075,177.93361h11.59415v28.53591h-11.59415z" id="ID0.2573526734486222"/></g><g id="ID0.395256862975657"><path d="M24.63431,217.29348h11.59415v28.53591h-11.59415z" id="ID0.7385775661095977"/></g><g id="ID0.6680252845399082"><path d="M52.31066,217.29348h11.59415v28.53591h-11.59415z" id="ID0.9020196138881147"/></g><g id="ID0.11485876981168985"><path d="M80.36101,217.29348h11.59415v28.53591h-11.59415z" id="ID0.09523493750020862"/></g><g id="ID0.6408908325247467"><path d="M108.41136,217.29348h11.59415v28.53591h-11.59415z" id="ID0.5644723912701011"/></g><g id="ID0.20947095938026905"><path d="M136.46171,217.29348h11.59415v28.53591h-11.59415z" id="ID0.9553400846198201"/></g><g id="ID0.9487326676025987"><path d="M164.13806,217.29348h11.59415v28.53591h-11.59415z" id="ID0.2166052171960473"/></g><g id="ID0.6141257584095001"><path d="M192.18841,217.29348h11.59415v28.53591h-11.59415z" id="ID0.895855731330812"/></g><g id="ID0.8318884950131178"><path d="M220.23876,217.29348h11.59415v28.53591h-11.59415z" id="ID0.32101255375891924"/></g><g id="ID0.4934910857118666"><path d="M24.63431,253.89817h11.59415v28.53591h-11.59415z" id="ID0.11817458411678672"/></g><g id="ID0.4105628910474479"><path d="M52.31066,253.89817h11.59415v28.53591h-11.59415z" id="ID0.7135915355756879"/></g><g id="ID0.3490315657109022"><path d="M80.36101,253.89817h11.59415v28.53591h-11.59415z" id="ID0.21839853283017874"/></g><g id="ID0.9245366961695254"><path d="M108.41136,253.89817h11.59415v28.53591h-11.59415z" id="ID0.6149426377378404"/></g><g id="ID0.7431980106048286"><path d="M136.46171,253.89817h11.59415v28.53591h-11.59415z" id="ID0.8084700237959623"/></g><g id="ID0.8288371837697923"><path d="M164.13806,253.89817h11.59415v28.53591h-11.59415z" id="ID0.3497806554660201"/></g><g id="ID0.867410781327635"><path d="M192.18841,253.89817h11.59415v28.53591h-11.59415z" id="ID0.4351030536927283"/></g><g id="ID0.9672944312915206"><path d="M220.23876,253.89817h11.59415v28.53591h-11.59415z" id="ID0.807707950938493"/></g><g id="ID0.3584961071610451"><path d="M247.1671,177.93361h11.59415v28.53591h-11.59415z" id="ID0.14754828345030546"/></g><g id="ID0.5603743800893426"><path d="M275.21745,177.93361h11.59415v28.53591h-11.59415z" id="ID0.8993290569633245"/></g><g id="ID0.1594226500019431"><path d="M303.2678,177.93361h11.59415v28.53591h-11.59415z" id="ID0.127543271984905"/></g><g id="ID0.6489308588206768"><path d="M331.31815,177.93361h11.59415v28.53591h-11.59415z" id="ID0.4876568499021232"/></g><g id="ID0.03821671428158879"><path d="M358.9945,177.93361h11.59415v28.53591h-11.59415z" id="ID0.28490134747698903"/></g><g id="ID0.6279748426750302"><path d="M387.04485,177.93361h11.59415v28.53591h-11.59415z" id="ID0.256508516613394"/></g><g id="ID0.023459989111870527"><path d="M415.0952,177.93361h11.59415v28.53591h-11.59415z" id="ID0.9313449072651565"/></g><g id="ID0.34160871198400855"><path d="M443.14555,177.93361h11.59415v28.53591h-11.59415z" id="ID0.910138560924679"/></g><g id="ID0.3057138775475323"><path d="M248.28911,217.29348h11.59415v28.53591h-11.59415z" id="ID0.1616731989197433"/></g><g id="ID0.9135612803511322"><path d="M275.96546,217.29348h11.59415v28.53591h-11.59415z" id="ID0.2776537472382188"/></g><g id="ID0.14537231950089335"><path d="M304.01581,217.29348h11.59415v28.53591h-11.59415z" id="ID0.6391830425709486"/></g><g id="ID0.4035021145828068"><path d="M332.06616,217.29348h11.59415v28.53591h-11.59415z" id="ID0.22086297580972314"/></g><g id="ID0.7849920000880957"><path d="M360.11651,217.29348h11.59415v28.53591h-11.59415z" id="ID0.1583904977887869"/></g><g id="ID0.4523827931843698"><path d="M387.79286,217.29348h11.59415v28.53591h-11.59415z" id="ID0.25656480016186833"/></g><g id="ID0.9109527389518917"><path d="M415.84321,217.29348h11.59415v28.53591h-11.59415z" id="ID0.2886277879588306"/></g><g id="ID0.04222543723881245"><path d="M443.89356,217.29348h11.59415v28.53591h-11.59415z" id="ID0.5405232235789299"/></g><g id="ID0.7828981168568134"><path d="M248.28911,253.89817h11.59415v28.53591h-11.59415z" id="ID0.16488431254401803"/></g><g id="ID0.6549611478112638"><path d="M275.96546,253.89817h11.59415v28.53591h-11.59415z" id="ID0.8942671371623874"/></g><g id="ID0.38102139439433813"><path d="M304.01581,253.89817h11.59415v28.53591h-11.59415z" id="ID0.6324284155853093"/></g><g id="ID0.540021853055805"><path d="M332.06616,253.89817h11.59415v28.53591h-11.59415z" id="ID0.14504433888942003"/></g><g id="ID0.6320506692864001"><path d="M360.11651,253.89817h11.59415v28.53591h-11.59415z" id="ID0.3001907281577587"/></g><g id="ID0.6137331817299128"><path d="M387.79286,253.89817h11.59415v28.53591h-11.59415z" id="ID0.6642812010832131"/></g><g id="ID0.9975902214646339"><path d="M415.84321,253.89817h11.59415v28.53591h-11.59415z" id="ID0.40785130858421326"/></g><g id="ID0.5951062198728323"><path d="M443.89356,253.89817h11.59415v28.53591h-11.59415z" id="ID0.5979973124340177"/></g></g></g></g></svg>