<svg version="1.1" xmlns="http://www.w3.org/2000/svg" xmlns:xlink="http://www.w3.org/1999/xlink" width="112.9" height="110.8" viewBox="0,0,112.9,110.8"><g transform="translate(-182.1,-125.4)"><g data-paper-data="{&quot;isPaintingLayer&quot;:true}" fill-rule="nonzero" stroke="none" stroke-width="1" stroke-linecap="butt" stroke-linejoin="miter" stroke-miterlimit="10" stroke-dasharray="" stroke-dashoffset="0" style="mix-blend-mode: normal"><path d="M280.2,187.6c3.7,3.9 10.9,5.7 10.9,5.7c0,0 -7.9,-0.9 -12.5,0.7c-0.1,0.5 -0.3,1.1 -0.5,1.6c3,4 8.8,6.6 8.8,6.6c0,0 -6.3,-1.9 -10.9,-1.7c-0.4,0.7 -0.8,1.4 -1.2,2.1c1.9,5.2 7.9,9.6 7.9,9.6c0,0 -6.5,-3.4 -11.2,-4c0,6.2 6.5,13 6.5,13c0,0 -8.4,-6.7 -13.3,-6.7c-0.3,0.2 -0.5,0.4 -0.8,0.6c-0.2,5 3.1,10.7 3.6,11.4l0.1,0.1l-0.1,-0.1l-0.4,-0.5c-1.2,-1.5 -5,-5.6 -8.4,-7.5c-0.4,0.3 -0.9,0.5 -1.4,0.8c-0.9,5.1 1.4,11.5 1.4,11.5c0,0 -3.3,-6.1 -6.7,-9.2c-0.6,0.2 -1.2,0.4 -1.8,0.6c-1.8,5 -0.5,11.7 -0.5,11.7c0,0 -2.2,-6.6 -5.2,-10.3c-0.4,0.1 -0.8,0.1 -1.2,0.2l-0.1,0.1h-1.8c-3.1,4.8 -3.3,12.3 -3.3,12.3c0,0 -0.9,-7.9 -3.2,-12.3h-1.8c-0.3,0 -0.7,0 -1,-0.1c-3.4,3.9 -4.9,10.1 -4.9,10.1c0,0 0.7,-6.5 -0.3,-11.1c-1.1,-0.2 -2.1,-0.6 -3.1,-0.9c-4.2,3 -7,9.1 -7,9.1c0,0 2.1,-6.8 1.7,-11.4c-0.7,-0.4 -1.5,-0.7 -2.2,-1.2c-4.4,2.3 -8,7.2 -8,7.2c0,0 2.9,-5.5 3.8,-10c-0.5,-0.4 -0.9,-0.7 -1.4,-1.1c-6,0.5 -12.2,6.5 -12.2,6.5c0,0 5.8,-7.2 6.6,-12.1c-0.5,-0.6 -0.9,-1.2 -1.4,-1.8c-4.3,0.5 -8.6,2.9 -9.6,3.5l-0.1,0.1h-0.2l0.1,-0.1l0.1,-0.1l0.5,-0.5c0.3,-0.3 0.8,-0.7 1.3,-1.2c1.7,-1.6 3.2,-3.2 4.6,-5v-0.1c0.2,-0.2 0.4,-0.4 0.5,-0.7c-0.6,-1 -1.1,-2.1 -1.6,-3.1c-4.8,0 -9.8,2.2 -9.8,2.2c0,0 5,-3 8.1,-6.4c-0.3,-1 -0.6,-1.9 -0.9,-2.9c-4.8,-1.1 -10.3,-0.1 -10.3,-0.1c0,0 5.5,-1.8 9.3,-4.4c-0.1,-1 -0.2,-2.1 -0.3,-3.1c-4.7,-3.6 -13.3,-4.2 -13.3,-4.2c0,0 9.4,-1.1 13.4,-4c0.9,-8.4 4.3,-16.3 9.8,-22.7c-0.1,-6.1 -6.5,-12.9 -6.5,-12.9c0,0 8.1,6.4 13,6.7c0.5,-0.4 0.9,-0.7 1.4,-1c-0.3,-5.2 -3.7,-10.7 -3.7,-10.7c0,0 0.2,0.2 0.5,0.6l-0.2,-0.3c0,0 1.1,1.3 2.7,3c1.6,1.7 3.4,3.2 5.3,4.4c2.8,-1.5 5.9,-2.7 9,-3.5c1.8,-5 0.5,-11.6 0.5,-11.6c0,0 2.3,6.8 5.4,10.6c0.5,-0.1 1.1,-0.1 1.7,-0.2c4.4,-4.4 4.5,-14 4.5,-14c0,0 1.3,10.8 4.7,14.2l0.9,0.1c3.8,-3.8 5.5,-10.6 5.5,-10.6c0,0 -0.8,7.4 0.6,12c3.2,1.1 6.3,2.4 9.2,4.2c5.1,-1.9 9.3,-7.8 9.3,-7.8c0,0 -3.3,6.1 -4,10.8c6.2,0.3 13.3,-6.5 13.3,-6.5c0,0 -8.1,10 -6.6,14.5l0.2,0.3c5.5,0.2 11.8,-3.7 11.8,-3.7c0,0 -6.2,5 -8.3,9.3c0.4,0.7 0.7,1.4 1,2.1c0.8,1.6 1.4,3.3 1.9,5c0.6,2.1 1.1,4.2 1.4,6.3c3.2,6.1 15.2,6.4 15.2,6.4h-0.2c-1.5,0.1 -12.7,1.6 -14.6,5.6z" fill="#eac685"/><path d="M280.9,190.54451c-1.9,-0.9 -3.8,-1.7 -5.7,-2.4c-1.6,2.7 -3.6,5.2 -5.7,7.5c1.1,1.7 2.5,3.2 4,4.6c-1.8,-1.2 -3.6,-2.3 -5.5,-3.2c-1.1,1.2 -2.3,2.1 -3.5,3.1c0.6,2.6 1.6,4.9 2.8,7.2c-1.6,-2 -3.3,-3.8 -5.1,-5.5c-1.7,1.2 -3.6,2.3 -5.5,3.2c0.7,3 2,5.8 3.6,8.4c0,0 -3.7,-4.4 -7.5,-6.8c-1.8,0.7 -3.6,1.2 -5.4,1.6c0,2.6 0.3,5.1 1,7.6c-1.1,-2.4 -2.4,-4.8 -3.9,-7c-1.4,0.3 -2.9,0.4 -4.3,0.5c-0.9,2.6 -1.3,5.4 -1.4,8.1c-0.4,-2.8 -1,-5.4 -1.8,-8.1c-1.9,0 -3.9,-0.2 -5.8,-0.5c-1.4,2.5 -2.5,5.2 -3.2,8.1c0.2,-2.9 0.1,-5.9 -0.3,-8.8c-1.6,-0.4 -3.1,-0.8 -4.7,-1.4c-3.8,3 -6.4,7.9 -6.4,7.9c1.1,-3.1 1.9,-6.4 2.3,-9.6c-1.6,-0.8 -3.2,-1.7 -4.7,-2.7c-2.3,1.5 -4.4,3.4 -6.2,5.5c1.4,-2.3 2.6,-4.8 3.6,-7.4c-1,-0.7 -1.9,-1.5 -2.8,-2.3c-5.7,-0.7 -12.8,4.6 -12.8,4.6c0,0 6.2,-6 7.5,-10.5c-1.7,-2.2 -3,-4.5 -4.2,-6.9c-2.9,0.1 -5.8,0.7 -8.5,1.7c2.5,-1.4 4.9,-3 7.1,-4.8c-0.8,-2.1 -1.5,-4.4 -2,-6.7c0,-0.2 0,-0.5 0.1,-0.8c-3.8,-3 -9.3,-4.3 -9.3,-4.3c0,0 5.7,0.6 10.3,-0.2c0.4,-1.3 0.8,-2.6 1.3,-3.8c-2.2,-2 -4.7,-3.7 -7.4,-5c2.9,0.9 5.9,1.4 8.9,1.7c0.7,-1.3 1.5,-2.7 2.3,-4c-2.4,-4.3 -7.1,-7.7 -7.1,-7.7c0,0 5.3,2.8 9.8,3.8c4.4,-5.4 10.1,-9.7 16.6,-12.4c0,-3.2 -0.6,-6.4 -1.6,-9.4c1.5,2.9 3.4,5.5 5.5,8c2.9,-0.9 5.9,-1.4 9,-1.7c4.4,-4.3 4.7,-13.9 4.7,-13.9c0,0 1.3,10.8 4.7,14.2c3.3,0.4 6.5,1.3 9.6,2.5c3.7,-3.1 6,-8.4 6,-8.4c0,0 -1.8,5.9 -1.7,10.4c5.7,3 10.5,7.3 14.3,12.4c5.5,0.2 11.8,-3.7 11.8,-3.7c0,0 -6.2,5 -8.3,9.3c0.3,0.5 0.5,1.1 0.8,1.6c4.7,1 9.9,0 9.9,0c-2.8,1 -5.6,2.3 -8.3,3.8c0.3,0.8 0.5,1.6 0.8,2.4c5,2.2 12.5,0.8 12.5,0.8c0,0 -8.6,2.9 -11.7,6.5c-0.8,3.3 -2,6.4 -3.6,9.3c1.3,1.6 2.9,3 5.1,3.6z" fill="#f2d39a"/></g></g></svg>