<svg version="1.1" xmlns="http://www.w3.org/2000/svg" xmlns:xlink="http://www.w3.org/1999/xlink" width="57.32365" height="74.80597" viewBox="0,0,57.32365,74.80597"><g transform="translate(-212.00035,-143.26806)"><g data-paper-data="{&quot;isPaintingLayer&quot;:true}" fill="none" fill-rule="nonzero" stroke="none" stroke-width="1" stroke-linecap="butt" stroke-linejoin="miter" stroke-miterlimit="10" stroke-dasharray="" stroke-dashoffset="0" font-family="none" font-weight="none" font-size="none" text-anchor="none" style="mix-blend-mode: normal"><path d="M269.324,174.43528c0,3.96342 -0.09,7.70095 -0.28,11.10991c-0.01,0.08214 -0.01,0.15402 -0.02,0.22589c-0.39,5.21611 -1.36,9.62106 -2.97,13.46127c-1.98,4.62057 -5.12,8.82016 -9.34,12.56796c-0.69,0.60581 -1.44,1.11921 -2.25,1.52992l-2.36,1.21162c-3.8,2.06386 -8.3,3.24467 -13.37,3.50137c-0.04,0.01027 -0.07,0.01027 -0.1,0.01027c-0.35,0.01027 -0.69,0.02054 -1.02,0.02054c-4.86,0 -9.41,-1.43751 -13.54,-4.26119c-0.6,-0.41072 -1.16,-0.88304 -1.68,-1.40671c-1.2,-1.24242 -1.9,-2.52591 -2.38,-3.50137c-0.91,-1.8893 -1.36,-3.7478 -1.36,-5.65763c0,-1.0884 0.15,-2.15627 0.44,-3.18306c0.34,-1.9201 1.06,-3.71699 2.16,-5.29826c-2.59,-2.13573 -4.62,-4.64111 -6.04,-7.4956c-1.9,-3.76833 -2.95,-7.72149 -3.15,-11.73625c-0.37,-6.9822 0.87,-12.51662 3.8,-16.84969c2.67,-3.97369 6.45,-7.51613 11.2,-10.48357c5.16,-3.21387 9.96,-4.82593 14.66,-4.92861c0.35,-0.01027 0.7,0 1.04,0.02054c1.88,0.14375 3.03,0.22589 3.43,0.2567c0.46,0.02054 0.92,0.06161 1.37,0.14375c4.64,0.8009 7.72,2.89556 9.61,4.73352c0.32,0.27723 0.7,0.62634 1.15,1.02679c0.49,0.44152 0.93,0.93438 1.34,1.45805l2.62,3.41922c1.63,2.08439 2.79,3.98396 3.59,5.87326c0.43,0.79063 0.93,1.74555 1.5,2.86476c0.14,0.27723 0.27,0.55447 0.39,0.84197c1.08,2.63886 1.56,5.88353 1.56,10.52464z" data-paper-data="{&quot;origPos&quot;:null}" id="ID0.24021119577810168" fill="#ffb900"/><path d="M258.325,174.4322c0,3.79298 -0.09,7.28613 -0.266,10.47638c-0.293,3.91414 -0.996,7.19577 -2.109,9.8449c-1.291,3.01261 -3.432,5.8404 -6.422,8.48953c-0.587,0.3029 -1.407,0.72389 -2.463,1.26501c-2.405,1.32559 -5.365,2.0772 -8.884,2.25792c-2.874,0.12013 -5.542,-0.66228 -8.005,-2.34828c-0.059,-0.06058 -0.162,-0.24027 -0.308,-0.54112c-0.146,-0.30085 -0.22,-0.51134 -0.22,-0.63353c0.058,-0.05853 0.147,-0.11808 0.266,-0.18072c-0.237,-1.8051 0.734,-2.70971 2.913,-2.70971c0.765,0 1.441,0.15094 2.031,0.45179c0.176,0.2413 0.501,0.51237 0.972,0.81322c1.059,0.36143 2.118,0.54112 3.18,0.54112c3.531,0 6.651,-1.62644 9.359,-4.87727c2.588,-3.01056 3.885,-6.17103 3.885,-9.48347c0,-0.60067 -0.059,-1.14282 -0.176,-1.62439c-2.883,2.82984 -6.617,4.24374 -11.205,4.24374c-3.354,0 -6.544,-0.79577 -9.572,-2.39243c-3.029,-1.59461 -5.133,-3.56811 -6.309,-5.91639c-1.177,-2.34828 -1.824,-4.72633 -1.94,-7.13519c-0.235,-4.39365 0.38,-7.67734 1.847,-9.8449c1.817,-2.70971 4.442,-5.13192 7.872,-7.2697c3.431,-2.13676 6.494,-3.23645 9.192,-3.29704c2.403,0.18072 3.664,0.27107 3.782,0.27107c1.759,0.3029 3.107,0.96416 4.046,1.98787c0.293,0.24027 0.704,0.60273 1.232,1.08429c0.879,1.14385 1.758,2.28872 2.639,3.43257c1.172,1.50631 1.934,2.76926 2.287,3.79195c0.408,0.72286 0.967,1.77635 1.67,3.1615c0.469,1.14385 0.706,3.19128 0.706,6.14125zM251.727,167.74777c-0.119,-0.05853 -0.309,-0.43536 -0.572,-1.12845c-0.264,-0.69206 -0.602,-1.03912 -1.011,-1.03912c-0.353,-1.92627 -1.056,-3.22003 -2.111,-3.88333c-0.646,-0.42099 -1.144,-0.75161 -1.495,-0.99394l0.088,-0.09036c-0.176,-0.29982 -0.528,-0.48157 -1.056,-0.54215c-0.352,0 -0.704,0 -1.056,0c-1.936,-0.41996 -3.313,-0.54112 -4.134,-0.36143c-1.818,0.36143 -3.842,1.41595 -6.069,3.1615c-2.405,1.80613 -3.959,3.64306 -4.662,5.50875c-0.47,1.14385 -0.734,2.40989 -0.792,3.79298c-0.118,1.56586 0.104,3.38739 0.663,5.4646c0.558,2.07618 2.015,3.95829 4.369,5.64429c2.354,1.68702 4.59,2.46944 6.709,2.34828c2.884,0.42201 5.71,-0.90358 8.477,-3.97369c2.588,-2.94998 3.883,-6.05192 3.883,-9.30378c0,-1.62541 -0.439,-3.01056 -1.318,-4.15441c0.056,-0.11705 0.087,-0.26799 0.087,-0.44974z" id="ID0.30180751578882337" fill="#ffffff"/></g></g></svg>