<svg version="1.1" xmlns="http://www.w3.org/2000/svg" xmlns:xlink="http://www.w3.org/1999/xlink" width="1.79267" height="2.21564"><g transform="translate(-238.24507,-178.91541)"><g data-paper-data="{&quot;isPaintingLayer&quot;:true}" fill="none" fill-rule="nonzero" stroke="none" stroke-width="1" stroke-linecap="butt" stroke-linejoin="miter" stroke-miterlimit="10" stroke-dasharray="" stroke-dashoffset="0" font-family="none" font-weight="none" font-size="none" text-anchor="none" style="mix-blend-mode: normal"><path d="M239.45892,178.91542c0,0 0.42677,0.29871 0.53098,0.68453c0,0 0.1078,0.73663 -0.0011,0.96852c0,0 -0.33719,0.45504 -0.51532,0.56195c0,0 -1.06837,-0.72381 -1.21986,-1.03929c-0.00853,-0.00062 0.73715,-1.09 1.2053,-1.17571z" data-paper-data="{&quot;origRot&quot;:0,&quot;origPos&quot;:null}" id="Shape" fill="#7fccef"/><path d="M238.24508,180.0905l0.59379,-0.03963l0.46694,0.47691l0.25817,0.52622c-0.02791,0.03486 -0.06376,0.05992 -0.09051,0.07641c0,0 -1.06895,-0.71463 -1.2284,-1.03992z" data-paper-data="{&quot;origRot&quot;:0,&quot;origPos&quot;:null}" id="Shape" fill="#678fe4"/><path d="M239.61816,179.92333l-0.31234,0.60446c-0.27181,-0.03831 -1.06073,-0.43728 -1.06073,-0.43728c0.27269,-0.24759 1.02929,-0.42292 1.02929,-0.42292z" data-paper-data="{&quot;origRot&quot;:0,&quot;origPos&quot;:null}" id="Shape" fill="#73b5e4"/><path d="M239.47348,181.13042c-0.10495,-0.23829 -0.12185,-0.3779 -0.16766,-0.60264c-0.07299,-0.33742 -0.03144,-0.8602 -0.03144,-0.8602c0.01042,-0.16528 0.18454,-0.75217 0.18454,-0.75217c0,0 0.41767,0.30726 0.53098,0.68453c0,0 0.10837,0.72745 -0.0011,0.96852c0,0 -0.3372,0.45504 -0.51533,0.56195z" data-paper-data="{&quot;origRot&quot;:0,&quot;origPos&quot;:null}" id="Shape" fill="#92d7ef"/><path d="M239.83268,180.32645l-0.53597,0.2099c-0.07299,-0.33742 -0.03144,-0.8602 -0.03144,-0.8602l0.55213,0.07725l0.19777,0.12515c0.01806,0.12124 0.0179,0.2596 0.01833,0.38878z" data-paper-data="{&quot;origRot&quot;:0,&quot;origPos&quot;:null}" id="Shape" fill="#7fccef"/><path d="M239.66076,180.4707c-0.00289,0.04591 -0.10398,0.42596 -0.16054,0.64322c-0.00911,0.00856 -0.01764,0.00793 -0.02675,0.0165c-0.10495,-0.23829 -0.12184,-0.3779 -0.16766,-0.60264c-0.07299,-0.33742 -0.03144,-0.8602 -0.03144,-0.8602c0.01042,-0.16528 0.18454,-0.75217 0.18454,-0.75217c0,0 0.01648,0.01043 0.04091,0.03066c0.05998,0.2719 0.14655,0.66566 0.14191,0.73912c-0.00695,0.11019 0.01454,0.72059 0.01902,0.7855z" data-paper-data="{&quot;origRot&quot;:0,&quot;origPos&quot;:null}" id="Shape" fill="#83cdef"/><path d="M239.98989,179.59995c0,0 0.10837,0.72745 -0.0102,0.97707c-0.14948,-0.07549 -0.15612,-0.24203 -0.15612,-0.24203l0.00236,-0.58098c0.08372,-0.10458 0.16396,-0.15406 0.16396,-0.15406z" data-paper-data="{&quot;origRot&quot;:0,&quot;origPos&quot;:null}" id="Shape" fill="#bee6f1"/><path d="M239.482,181.13104c-0.10495,-0.23829 -0.12184,-0.3779 -0.16766,-0.60264l0.51833,-0.20196l0.17782,0.16982c-0.00174,0.02755 -0.01201,0.05447 -0.02169,0.07221c0,0 -0.3372,0.45504 -0.50679,0.56258z" data-paper-data="{&quot;origRot&quot;:0,&quot;origPos&quot;:null}" id="Shape" fill="#73b5e4"/><path d="M239.47348,181.13042c0,0 -0.02501,-0.01105 -0.05797,-0.03191c-0.04149,-0.02148 -0.09094,-0.05277 -0.15744,-0.0853c-0.03296,-0.02086 -0.06592,-0.04171 -0.09888,-0.06258c-0.03296,-0.02086 -0.07387,-0.05152 -0.11479,-0.08219c-0.07387,-0.05152 -0.15513,-0.12203 -0.23695,-0.18336c-0.07272,-0.06989 -0.15396,-0.1404 -0.21873,-0.20048c-0.06419,-0.06926 -0.12895,-0.12935 -0.17666,-0.18818c-0.10394,-0.11829 -0.15902,-0.19611 -0.15902,-0.19611c0,0 0.07214,0.07907 0.17724,0.179c0.05682,0.05028 0.12158,0.11036 0.18577,0.17962c0.0733,0.0607 0.14601,0.13059 0.21873,0.20048c0.07272,0.06989 0.15454,0.13122 0.22842,0.18274c0.0733,0.0607 0.14717,0.11223 0.20456,0.15332c0.0574,0.04109 0.11479,0.08219 0.14776,0.10304c0.03296,0.02086 0.05797,0.03191 0.05797,0.03191z" data-paper-data="{&quot;origRot&quot;:0,&quot;origPos&quot;:null}" id="Shape" fill="#3b73e4"/><path d="M239.45892,178.91542c0,0 -0.00289,0.04591 -0.01548,0.10957c-0.01258,0.06366 -0.02633,0.14567 -0.04859,0.22707c-0.02227,0.08139 -0.04455,0.16279 -0.06566,0.22582c-0.02111,0.06303 -0.03196,0.09914 -0.03196,0.09914c0,0 -0.00563,-0.04654 0.00695,-0.11019c0.01258,-0.06366 0.02633,-0.14567 0.04859,-0.22707c0.02227,-0.08139 0.04455,-0.16279 0.06566,-0.22582c0.02111,-0.06303 0.04049,-0.09852 0.04049,-0.09852z" data-paper-data="{&quot;origRot&quot;:0,&quot;origPos&quot;:null}" id="Shape" fill="#bee6f1"/><path d="M239.18791,179.67972c0,0 -0.05292,0.02381 -0.1229,0.04636c-0.07908,0.03112 -0.17524,0.06099 -0.27196,0.10005c-0.09615,0.02987 -0.2014,0.06831 -0.27138,0.09087c-0.03528,0.01587 -0.06998,0.02256 -0.0882,0.03968c-0.01822,0.01712 -0.02675,0.0165 -0.02675,0.0165c0,0 0.00911,-0.00856 0.02733,-0.02567c0.01822,-0.01712 0.04497,-0.03361 0.08082,-0.05867c0.07113,-0.04093 0.16787,-0.07998 0.27312,-0.11842c0.10526,-0.03843 0.20083,-0.05912 0.27933,-0.08106c0.06824,0.00499 0.12058,-0.00964 0.12058,-0.00964z" data-paper-data="{&quot;origRot&quot;:0,&quot;origPos&quot;:null}" id="Shape" fill="#bee6f1"/><path d="M239.66076,180.4707c-0.00289,0.04591 -0.10398,0.42596 -0.16054,0.64322c-0.00911,0.00856 -0.01764,0.00793 -0.02675,0.0165c-0.10495,-0.23829 -0.12184,-0.3779 -0.16766,-0.60264l0.35105,-0.13117c-0.00232,0.03673 -0.00406,0.06428 0.0039,0.07408z" data-paper-data="{&quot;origRot&quot;:0,&quot;origPos&quot;:null}" id="Shape" fill="#679fe4"/><path d="M239.65687,180.39662l-0.35105,0.13117c-0.07299,-0.33742 -0.03144,-0.8602 -0.03144,-0.8602l0.36506,0.05436c-0.00073,0.14754 0.01022,0.51734 0.01744,0.67468z" data-paper-data="{&quot;origRot&quot;:0,&quot;origPos&quot;:null}" id="Shape" fill="#7cbfef"/></g></g></svg>