<svg version="1.1" xmlns="http://www.w3.org/2000/svg" xmlns:xlink="http://www.w3.org/1999/xlink" width="58.01717" height="78.41312" viewBox="0,0,58.01717,78.41312"><g transform="translate(-210.99992,-140.2729)"><g data-paper-data="{&quot;isPaintingLayer&quot;:true}" fill="none" fill-rule="nonzero" stroke="none" stroke-width="1" stroke-linecap="butt" stroke-linejoin="miter" stroke-miterlimit="10" stroke-dasharray="" stroke-dashoffset="0" font-family="none" font-weight="none" font-size="none" text-anchor="none" style="mix-blend-mode: normal"><path d="M269.01709,156.45689c0,0.91487 -0.09149,1.83888 -0.27446,2.7446c-0.05489,0.27446 -0.11893,0.53977 -0.19212,0.80508c-1.04295,3.68691 -3.41245,9.78906 -7.43785,19.21217c-0.48488,1.41804 -2.22312,6.49554 -5.20558,15.20506c-0.64041,2.20483 -1.56442,5.31537 -2.76289,9.33163c-0.02745,0.10064 -0.06404,0.20127 -0.10064,0.30191c-0.00915,0.04574 -0.07319,0.25616 -0.10978,0.72274c-0.11893,1.84803 -0.37509,3.43989 -0.76849,4.85793c-0.71359,2.63481 -2.32376,4.96772 -4.56518,6.56873c-1.13443,0.82338 -2.42439,1.3906 -3.77839,1.6742c-0.23786,0.06404 -0.61296,0.16468 -1.14358,0.31105c-1.11614,0.32935 -2.27801,0.49403 -3.45819,0.49403c-1.3906,0 -2.79949,-0.22872 -4.19008,-0.68615c-1.75654,-0.58551 -3.31181,-1.63761 -4.50114,-3.0282c-1.13443,-0.96976 -2.04015,-2.18653 -2.65311,-3.55883c-1.13443,-2.53418 -1.34485,-5.35196 -0.62211,-8.37102c0.38424,-1.7291 1.00635,-4.12604 1.91207,-7.31892c0.04574,-0.16468 0.10064,-0.3385 0.15553,-0.50318c0.77764,-2.27801 1.92122,-5.76365 3.4033,-10.38372c0.15553,-0.45743 0.32935,-0.89657 0.53977,-1.31741c0.3202,-1.23507 0.6587,-2.44269 1.02465,-3.63202c-2.32376,1.7108 -5.17814,2.64396 -8.33442,2.64396c-1.6925,0 -3.385,-0.26531 -5.03176,-0.80508c-4.50114,-1.44549 -7.60253,-4.98602 -8.28868,-9.4963c-0.00915,-0.03659 -0.0183,-0.07319 -0.0183,-0.10978c-0.26531,-1.84803 -0.25616,-4.29987 0.03659,-8.08741c-0.05489,-0.72274 -0.14638,-2.02185 -0.27446,-3.89733c0,-0.04574 -0.00915,-0.09149 -0.00915,-0.13723c-0.05489,-0.9972 -0.20127,-1.84803 -0.42999,-2.51588c-0.0183,-0.03659 -0.02745,-0.06404 -0.03659,-0.09149c-0.53977,-1.62846 -2.18653,-6.55044 1.0338,-11.04242c2.7263,-3.86073 6.99872,-6.07471 11.73772,-6.07471c3.94307,0 7.52019,1.61016 10.03607,4.4005c0.51232,0.0183 1.02465,0.06404 1.52782,0.14638c3.54053,0.54892 6.94383,1.7291 10.155,3.52223c2.29631,-2.67141 5.73621,-4.28157 9.74331,-4.28157c7.4653,0 12.8813,5.21473 12.8813,12.39642z" data-paper-data="{&quot;origPos&quot;:null}" id="ID0.22711717570200562" fill="#ffb900"/><path d="M258.87032,157.26105c-0.91304,3.2185 -3.299,9.33437 -7.16248,18.34762c-0.10795,0.32203 -1.90475,5.58068 -5.39222,15.77228c-0.64315,2.20025 -1.58272,5.36568 -2.81596,9.49539c-0.32295,0.96701 -0.5233,2.03923 -0.60381,3.22033c-0.08051,1.17926 -0.22872,2.14444 -0.44188,2.89646c-0.10795,0.42907 -0.34948,0.77764 -0.72457,1.04752c-0.05398,0 -0.6706,0.16102 -1.84986,0.48213c-0.48305,0.16102 -1.04661,0.13266 -1.69067,-0.08051c-0.21499,-0.37692 -0.591,-0.75202 -1.1262,-1.12711c-0.21499,-0.48213 -0.21499,-1.15273 0,-2.00996c0.32386,-1.50129 0.91761,-3.77931 1.78307,-6.83862c0.80417,-2.35944 1.95781,-5.87343 3.46094,-10.54016c0.05306,0 0.16102,-0.13357 0.32203,-0.40254c0.96335,-3.97143 2.16915,-7.70042 3.61555,-11.18789c1.0155,-2.36035 2.35486,-5.95486 4.01626,-10.78352c-0.21499,0.05398 -0.53703,0.08051 -0.9661,0.08051c-2.36127,-0.26806 -4.05194,-0.63034 -5.07018,-1.08686c-1.01916,-0.4556 -2.5479,-1.22043 -4.58713,-2.29448c-2.20025,-1.44823 -3.78205,-2.1728 -4.74724,-2.1728c-0.53703,0 -1.00635,0.30922 -1.40798,0.92584c-0.40254,0.61753 -0.76483,1.22135 -1.08686,1.81052c-0.05489,0.10795 -0.2955,0.53703 -0.72457,1.28722c-0.32203,1.02007 -0.99354,2.97697 -2.01179,5.87435c-0.69804,1.66323 -1.93037,2.49575 -3.70154,2.49575c-0.64315,0 -1.28722,-0.10704 -1.93128,-0.32295c-0.85814,-0.26714 -1.34119,-0.75019 -1.44823,-1.44823c-0.16102,-1.1262 -0.10795,-3.32554 0.16102,-6.59892c0,-0.05306 -0.10795,-1.61016 -0.32203,-4.66764c-0.10795,-1.93128 -0.42999,-3.6741 -0.9661,-5.2312c-0.37601,-1.1262 -0.48213,-1.7968 -0.32203,-2.01087c0.85814,-1.23507 2.03832,-1.85077 3.54053,-1.85077c1.39425,0 2.41433,0.591 3.05839,1.77118c0.37418,0.69713 0.50958,1.79771 0.40163,3.29809c-0.21499,1.66323 -0.18846,2.79034 0.08051,3.37951c2.57443,-2.94953 4.74724,-4.29072 6.51841,-4.02266c2.41433,0.37509 4.74724,1.20579 7.00055,2.49484c1.23415,0.69804 2.44086,1.42262 3.62104,2.1728c1.44915,0.85814 2.62841,1.36772 3.54144,1.52874c0.64315,0.10795 1.7419,-0.29367 3.299,-1.20671c0.80417,-0.48213 1.23324,-1.54246 1.28722,-3.17916c0.05306,-1.63486 0.93774,-2.45458 2.65494,-2.45458c1.8773,0 2.81687,0.77855 2.81687,2.33382c0.00183,0.26714 -0.02562,0.5352 -0.07868,0.80325z" data-paper-data="{&quot;origPos&quot;:null}" id="ID0.42698933370411396" fill="#ffffff"/></g></g></svg>