<svg version="1.1" xmlns="http://www.w3.org/2000/svg" xmlns:xlink="http://www.w3.org/1999/xlink" width="60.71849" height="77.21867"><g transform="translate(-212.00002,-142.25719)"><g data-paper-data="{&quot;isPaintingLayer&quot;:true}" fill="none" fill-rule="nonzero" stroke="none" stroke-width="1" stroke-linecap="butt" stroke-linejoin="miter" stroke-miterlimit="10" stroke-dasharray="" stroke-dashoffset="0" font-family="none" font-weight="none" font-size="none" text-anchor="none" style="mix-blend-mode: normal"><path d="M272.71848,192.23083c0,3.87513 -0.71682,7.38383 -2.13209,10.46195c-0.45031,1.19094 -1.1028,2.41853 -1.99423,3.80185c-0.40436,0.62295 -0.88224,1.2001 -1.41526,1.72228c-7.43473,7.26473 -17.5897,11.05742 -30.18922,11.25896h-0.16542c-2.53645,0 -5.14641,-0.60463 -7.76557,-1.80473c-0.15623,-0.06413 -0.30327,-0.13742 -0.45031,-0.21987c-2.3067,-1.19094 -4.70529,-2.97735 -7.34283,-5.45084c-3.48302,-3.2247 -5.50482,-6.07379 -6.41464,-9.09694c-0.11947,-0.28399 -0.2757,-0.65043 -0.46869,-1.081c-0.37679,-0.8703 -0.63411,-1.78641 -0.75358,-2.73c-0.16542,-0.3756 -0.30327,-0.76037 -0.42274,-1.16345c-0.3676,-1.28255 -0.5514,-2.65671 -0.5514,-4.08584c0,-3.89346 1.29579,-7.87852 3.869,-11.85443c0.79953,-1.2459 1.64501,-2.3086 2.50888,-3.20638c-0.84548,-0.64127 -1.61744,-1.39248 -2.3067,-2.25363c-0.1838,-0.21987 -0.34922,-0.45805 -0.51464,-0.69624c-1.66339,-2.49182 -1.99423,-5.176 -2.08613,-6.98074c-0.00919,-0.07329 -0.00919,-0.15574 -0.01838,-0.22903c-0.02757,-0.34812 -0.1838,-1.67647 -0.87305,-5.95469c-0.24813,-0.60463 -0.43193,-1.22758 -0.56059,-1.87802c-0.17461,-0.92527 -0.30327,-1.56654 -0.37679,-1.9055c-0.19299,-0.77869 -0.29408,-1.59402 -0.29408,-2.42769c0,-3.02316 1.0109,-5.78979 2.92243,-8.00678c0.16542,-0.20154 0.34003,-0.38476 0.52383,-0.56799c2.80296,-2.79413 6.61682,-4.27822 11.3313,-4.39731c0.0919,-0.00916 0.17461,-0.00916 0.26651,-0.00916c1.08442,0 3.89657,-0.03664 11.11993,-0.23819h0.2757c0.32165,0 1.94828,-0.03664 9.47491,-0.52218c0.79034,-0.10077 1.59906,-0.20154 2.42617,-0.29315c0.90062,-0.10993 1.72772,-0.1649 2.51807,-0.1649c2.4905,0 4.62258,0.5405 6.50654,1.63983c2.26075,1.33751 4.00685,3.27967 5.08208,5.6249c2.04018,4.4248 1.38769,9.35345 -1.75529,13.21027c-0.44112,0.5405 -0.93738,1.0352 -1.47959,1.47493c-0.69844,1.02604 -1.54392,2.19866 -2.56402,3.52701c6.2676,3.49037 9.67709,8.21748 11.52429,12.47738c0.34922,0.55882 0.66168,1.16345 0.94657,1.81389c0.2757,0.61379 0.48707,1.26423 0.63411,1.92382c0.6433,2.90406 0.96495,5.68902 0.96495,8.28161zM213.03847,160.89995c-0.26651,-0.5405 -0.48707,-1.10849 -0.66168,-1.70396c0.16542,0.59547 0.38598,1.16345 0.6433,1.70396z" data-paper-data="{&quot;origPos&quot;:null}" id="ID0.9592072083614767" fill="#ffaf00"/><path d="M261.8816,186.11032c0.48523,2.20324 0.72785,4.24433 0.72785,6.12418c0,2.57792 -0.45858,4.78208 -1.37391,6.60788c-0.16174,0.53775 -0.53945,1.26331 -1.13129,2.17575c-5.55169,5.42519 -13.31083,8.21932 -23.28108,8.38055c-1.07891,0 -2.2635,-0.2959 -3.55654,-0.88679c-1.45478,-0.75304 -3.1531,-2.04201 -5.09219,-3.86873c-2.2102,-2.04109 -3.44993,-3.67908 -3.7192,-4.91492c-0.16174,-0.42965 -0.43193,-1.07459 -0.8078,-1.9339c0,-0.10718 -0.18931,-1.28897 -0.56611,-3.54534c-0.10844,0.16123 -0.16174,0.45714 -0.16174,0.88679c-0.10844,-0.3756 -0.16174,-0.80617 -0.16174,-1.28897c0,-1.9339 0.75358,-4.06935 2.2635,-6.40634c1.50808,-2.33699 3.1531,-3.50502 4.93045,-3.50502c0.86202,0 1.69832,0.32339 2.50612,0.97107c0.21505,0.16215 0.32441,0.51302 0.32441,1.05078c0,0.2162 -0.09558,0.5002 -0.28305,0.85014c-0.19023,0.34995 -0.31154,0.63303 -0.36392,0.84832c-0.7545,0.64768 -1.50992,1.29446 -2.2635,1.94214c-1.07891,1.0242 -1.67075,1.88718 -1.77827,2.588c-0.10844,0.43149 -0.16266,0.88954 -0.16266,1.37507c0,2.69702 1.21308,5.35282 3.63833,7.96738c2.42525,2.61457 4.98375,3.92186 7.67918,3.92186c0.48431,0 0.9962,-0.05405 1.53565,-0.16123c0.91533,-0.05497 2.2635,-0.16306 4.04085,-0.32431c2.10176,-0.48462 4.25682,-1.28988 6.46702,-2.42127c2.69451,-1.3989 4.36526,-2.89215 5.01132,-4.48068c0.64698,-1.58578 0.97047,-3.32272 0.97047,-5.20624c0,-1.82855 -0.32349,-3.52335 -0.97047,-5.08439c-0.16174,-0.43149 -0.40344,-1.04986 -0.72693,-1.85695c-2.1569,-3.22836 -4.55457,-5.24563 -7.19395,-6.05364c-0.64698,-0.21346 -1.99515,-0.34904 -4.04177,-0.40217c-2.04846,-0.05497 -3.53081,-0.13466 -4.44613,-0.24368c-1.77827,-0.21346 -3.2064,-0.67151 -4.28439,-1.37233c-0.32349,-0.37469 -0.48431,-0.83182 -0.48431,-1.3705c0,-1.29171 0.53762,-2.26096 1.61652,-2.9068c0.86202,-0.53775 2.4519,-2.69061 4.76962,-6.45764c1.56138,-2.20599 3.82489,-5.4884 6.79051,-9.84723c-6.62876,0 -13.20422,0.40217 -19.72454,1.20834c0,0.80617 0.1884,2.28385 0.56611,4.43212c0.48431,2.84726 0.75358,4.54022 0.8078,5.07707c0.0533,0.64402 -0.21505,1.3027 -0.8078,1.97329c-0.59368,0.67243 -1.34818,1.08833 -2.2635,1.24865c-0.86294,0.16215 -1.61744,-0.16123 -2.2635,-0.9665c-0.21597,-0.32339 -0.35198,-0.96741 -0.40436,-1.9339c0,-0.80617 -0.43193,-3.81376 -1.29304,-9.02549c-0.05422,-0.10718 -0.16174,-0.24186 -0.32349,-0.40309c-0.32441,-1.66365 -0.48523,-2.46983 -0.48523,-2.41761c0,-0.59089 0.16174,-1.07368 0.48523,-1.4502c0.91533,-0.91245 2.39676,-1.39615 4.44613,-1.4502c1.66891,0 5.46898,-0.08062 11.39747,-0.24277c1.13129,0 4.60788,-0.18689 10.42792,-0.56341c0.86202,-0.10718 1.7507,-0.21346 2.66694,-0.32247c1.34634,-0.16123 2.24972,-0.10718 2.7083,0.16123c0.45674,0.26934 0.79402,0.64402 1.00998,1.12773c0.43101,0.91427 0.29592,1.80015 -0.40344,2.65854c-0.37771,0.21529 -0.83629,0.61838 -1.37391,1.20834c-0.7012,1.12773 -1.76632,2.61915 -3.19353,4.47244c-1.42813,1.85328 -2.46568,3.31814 -3.11174,4.39182c-0.86294,1.50516 -2.18263,3.76062 -3.96182,6.76912c9.64585,1.4502 15.65428,5.39954 18.02623,11.84619c0.21505,0.21711 0.43193,0.56615 0.64698,1.04986z" data-paper-data="{&quot;origPos&quot;:null}" id="ID0.3873927383683622" fill="#ffffff"/></g></g></svg>