<svg version="1.1" xmlns="http://www.w3.org/2000/svg" xmlns:xlink="http://www.w3.org/1999/xlink" width="1.57558" height="1.9803"><g transform="translate(-238.54548,-178.90076)"><g data-paper-data="{&quot;isPaintingLayer&quot;:true}" fill="none" fill-rule="nonzero" stroke="none" stroke-width="1" stroke-linecap="butt" stroke-linejoin="miter" stroke-miterlimit="10" stroke-dasharray="" stroke-dashoffset="0" font-family="none" font-weight="none" font-size="none" text-anchor="none" style="mix-blend-mode: normal"><path d="M239.61234,178.90077c0,0 0.3751,0.26698 0.46668,0.61182c0,0 0.09474,0.65839 -0.00096,0.86564c0,0 -0.29636,0.40671 -0.45292,0.50226c0,0 -0.93901,-0.64692 -1.07215,-0.9289c-0.0075,-0.00055 0.64789,-0.97422 1.05935,-1.05083z" data-paper-data="{&quot;origRot&quot;:0,&quot;origPos&quot;:null}" id="Shape" fill="#7fccef"/><path d="M238.54548,179.95104l0.52189,-0.03542l0.4104,0.42625l0.22691,0.47033c-0.02453,0.03116 -0.05604,0.05355 -0.07955,0.0683c0,0 -0.93952,-0.63872 -1.07965,-0.92946z" data-paper-data="{&quot;origRot&quot;:0,&quot;origPos&quot;:null}" id="Shape" fill="#678fe4"/><path d="M239.75229,179.80162l-0.27452,0.54025c-0.2389,-0.03424 -0.93229,-0.39083 -0.93229,-0.39083c0.23967,-0.22129 0.90466,-0.378 0.90466,-0.378z" data-paper-data="{&quot;origRot&quot;:0,&quot;origPos&quot;:null}" id="Shape" fill="#73b5e4"/><path d="M239.62513,180.8805c-0.09224,-0.21298 -0.1071,-0.33776 -0.14736,-0.53862c-0.06415,-0.30158 -0.02764,-0.76883 -0.02764,-0.76883c0.00916,-0.14773 0.1622,-0.67227 0.1622,-0.67227c0,0 0.36709,0.27463 0.46668,0.61182c0,0 0.09525,0.65018 -0.00096,0.86564c0,0 -0.29637,0.40671 -0.45293,0.50226z" data-paper-data="{&quot;origRot&quot;:0,&quot;origPos&quot;:null}" id="Shape" fill="#92d7ef"/><path d="M239.94084,180.16192l-0.47107,0.1876c-0.06415,-0.30158 -0.02764,-0.76883 -0.02764,-0.76883l0.48528,0.06904l0.17383,0.11185c0.01587,0.10836 0.01573,0.23203 0.01611,0.34748z" data-paper-data="{&quot;origRot&quot;:0,&quot;origPos&quot;:null}" id="Shape" fill="#7fccef"/><path d="M239.78974,180.29085c-0.00254,0.04104 -0.09139,0.38072 -0.1411,0.5749c-0.008,0.00765 -0.0155,0.00709 -0.02351,0.01474c-0.09224,-0.21298 -0.10709,-0.33776 -0.14735,-0.53862c-0.06415,-0.30158 -0.02764,-0.76883 -0.02764,-0.76883c0.00916,-0.14773 0.1622,-0.67227 0.1622,-0.67227c0,0 0.01449,0.00932 0.03596,0.0274c0.05272,0.24302 0.1288,0.59496 0.12473,0.66062c-0.00611,0.09848 0.01278,0.64405 0.01672,0.70206z" data-paper-data="{&quot;origRot&quot;:0,&quot;origPos&quot;:null}" id="Shape" fill="#83cdef"/><path d="M240.07902,179.51259c0,0 0.09525,0.65018 -0.00897,0.87329c-0.13138,-0.06748 -0.13722,-0.21632 -0.13722,-0.21632l0.00208,-0.51927c0.07358,-0.09347 0.14411,-0.13769 0.14411,-0.13769z" data-paper-data="{&quot;origRot&quot;:0,&quot;origPos&quot;:null}" id="Shape" fill="#bee6f1"/><path d="M239.63263,180.88105c-0.09224,-0.21298 -0.10709,-0.33776 -0.14735,-0.53862l0.45557,-0.18051l0.15628,0.15178c-0.00153,0.02462 -0.01055,0.04868 -0.01906,0.06454c0,0 -0.29637,0.40671 -0.44543,0.50282z" data-paper-data="{&quot;origRot&quot;:0,&quot;origPos&quot;:null}" id="Shape" fill="#73b5e4"/><path d="M239.62513,180.8805c0,0 -0.02198,-0.00988 -0.05095,-0.02852c-0.03647,-0.0192 -0.07993,-0.04717 -0.13837,-0.07624c-0.02897,-0.01864 -0.05794,-0.03728 -0.08691,-0.05593c-0.02897,-0.01864 -0.06493,-0.04605 -0.10089,-0.07346c-0.06493,-0.04605 -0.13634,-0.10907 -0.20826,-0.16389c-0.06391,-0.06247 -0.13532,-0.12548 -0.19224,-0.17919c-0.05641,-0.0619 -0.11334,-0.11561 -0.15527,-0.16819c-0.09136,-0.10573 -0.13977,-0.17528 -0.13977,-0.17528c0,0 0.0634,0.07067 0.15578,0.15998c0.04994,0.04494 0.10686,0.09863 0.16327,0.16054c0.06442,0.05426 0.12833,0.11672 0.19224,0.17919c0.06391,0.06247 0.13583,0.11728 0.20076,0.16333c0.06442,0.05426 0.12935,0.10031 0.17979,0.13704c0.05045,0.03673 0.10089,0.07346 0.12986,0.0921c0.02897,0.01864 0.05095,0.02852 0.05095,0.02852z" data-paper-data="{&quot;origRot&quot;:0,&quot;origPos&quot;:null}" id="Shape" fill="#3b73e4"/><path d="M239.61234,178.90077c0,0 -0.00254,0.04104 -0.01361,0.09793c-0.01106,0.05689 -0.02314,0.1302 -0.04271,0.20295c-0.01957,0.07275 -0.03915,0.1455 -0.05771,0.20183c-0.01856,0.05633 -0.02809,0.08861 -0.02809,0.08861c0,0 -0.00495,-0.0416 0.00611,-0.09848c0.01106,-0.05689 0.02314,-0.1302 0.04271,-0.20295c0.01957,-0.07275 0.03915,-0.1455 0.05771,-0.20183c0.01856,-0.05633 0.03559,-0.08805 0.03559,-0.08805z" data-paper-data="{&quot;origRot&quot;:0,&quot;origPos&quot;:null}" id="Shape" fill="#bee6f1"/><path d="M239.37414,179.58389c0,0 -0.04651,0.02128 -0.10802,0.04144c-0.06951,0.02781 -0.15402,0.05452 -0.23903,0.08942c-0.08451,0.0267 -0.17701,0.06105 -0.23852,0.08122c-0.03101,0.01418 -0.0615,0.02017 -0.07752,0.03546c-0.01602,0.0153 -0.02351,0.01474 -0.02351,0.01474c0,0 0.008,-0.00765 0.02402,-0.02295c0.01602,-0.0153 0.03952,-0.03004 0.07104,-0.05244c0.06252,-0.03658 0.14754,-0.07149 0.24005,-0.10584c0.09251,-0.03435 0.17651,-0.05284 0.24551,-0.07245c0.05998,0.00446 0.10598,-0.00861 0.10598,-0.00861z" data-paper-data="{&quot;origRot&quot;:0,&quot;origPos&quot;:null}" id="Shape" fill="#bee6f1"/><path d="M239.78974,180.29085c-0.00254,0.04104 -0.09139,0.38072 -0.1411,0.5749c-0.008,0.00765 -0.0155,0.00709 -0.02351,0.01474c-0.09224,-0.21298 -0.10709,-0.33776 -0.14735,-0.53862l0.30854,-0.11723c-0.00204,0.03283 -0.00356,0.05745 0.00342,0.06621z" data-paper-data="{&quot;origRot&quot;:0,&quot;origPos&quot;:null}" id="Shape" fill="#679fe4"/><path d="M239.78632,180.22464l-0.30854,0.11723c-0.06415,-0.30158 -0.02764,-0.76883 -0.02764,-0.76883l0.32086,0.04858c-0.00064,0.13187 0.00898,0.46238 0.01533,0.60302z" data-paper-data="{&quot;origRot&quot;:0,&quot;origPos&quot;:null}" id="Shape" fill="#7cbfef"/></g></g></svg>