<svg version="1.1" xmlns="http://www.w3.org/2000/svg" xmlns:xlink="http://www.w3.org/1999/xlink" width="97.6625" height="113.40096" viewBox="0,0,97.6625,113.40096"><defs><linearGradient x1="157.77283" y1="126.84608" x2="157.77283" y2="221.62838" gradientUnits="userSpaceOnUse" id="color-1"><stop offset="0" stop-color="#dcd2b4"/><stop offset="1" stop-color="#1d2c25"/></linearGradient><linearGradient x1="169.52354" y1="158.45954" x2="169.52354" y2="183.24196" gradientUnits="userSpaceOnUse" id="color-2"><stop offset="0" stop-color="#dcd2b4"/><stop offset="1" stop-color="#1d2c25"/></linearGradient><linearGradient x1="213.73174" y1="122.90346" x2="213.73174" y2="142.4117" gradientUnits="userSpaceOnUse" id="color-3"><stop offset="0" stop-color="#c8bea0"/><stop offset="1" stop-color="#1d2c25"/></linearGradient><linearGradient x1="206.35942" y1="207.81201" x2="206.35942" y2="229.55008" gradientUnits="userSpaceOnUse" id="color-4"><stop offset="0" stop-color="#aaa082"/><stop offset="1" stop-color="#1d2c25"/></linearGradient><linearGradient x1="231.85755" y1="118.83329" x2="231.85755" y2="167.94384" gradientUnits="userSpaceOnUse" id="color-5"><stop offset="0" stop-color="#dcd2b4"/><stop offset="1" stop-color="#1d2c25"/></linearGradient><linearGradient x1="219.66007" y1="119.47659" x2="219.66007" y2="165.45601" gradientUnits="userSpaceOnUse" id="color-6"><stop offset="0" stop-color="#dcd2b4"/><stop offset="1" stop-color="#1d2c25"/></linearGradient><linearGradient x1="206.91084" y1="123.14598" x2="206.91084" y2="166.78524" gradientUnits="userSpaceOnUse" id="color-7"><stop offset="0" stop-color="#dcd2b4"/><stop offset="1" stop-color="#1d2c25"/></linearGradient><linearGradient x1="197.74951" y1="129.00062" x2="197.74951" y2="166.83491" gradientUnits="userSpaceOnUse" id="color-8"><stop offset="0" stop-color="#dcd2b4"/><stop offset="1" stop-color="#1d2c25"/></linearGradient><linearGradient x1="213.74156" y1="118.9295" x2="213.74156" y2="134.45118" gradientUnits="userSpaceOnUse" id="color-9"><stop offset="0" stop-color="#dcd2b4"/><stop offset="1" stop-color="#1d2c25"/></linearGradient><linearGradient x1="213.64604" y1="186.84755" x2="213.64604" y2="229.82632" gradientUnits="userSpaceOnUse" id="color-10"><stop offset="0" stop-color="#dcd2b4"/><stop offset="1" stop-color="#1d2c25"/></linearGradient><linearGradient x1="224.82859" y1="188.68438" x2="224.82859" y2="230.58104" gradientUnits="userSpaceOnUse" id="color-11"><stop offset="0" stop-color="#dcd2b4"/><stop offset="1" stop-color="#1d2c25"/></linearGradient><linearGradient x1="202.26893" y1="188.86821" x2="202.26893" y2="228.21917" gradientUnits="userSpaceOnUse" id="color-12"><stop offset="0" stop-color="#dcd2b4"/><stop offset="1" stop-color="#1d2c25"/></linearGradient><linearGradient x1="193.32339" y1="188.61897" x2="193.32339" y2="222.74113" gradientUnits="userSpaceOnUse" id="color-13"><stop offset="0" stop-color="#dcd2b4"/><stop offset="1" stop-color="#1d2c25"/></linearGradient><linearGradient x1="206.48758" y1="215.75725" x2="206.48758" y2="231.73425" gradientUnits="userSpaceOnUse" id="color-14"><stop offset="0" stop-color="#dcd2b4"/><stop offset="1" stop-color="#1d2c25"/></linearGradient><linearGradient x1="236.51605" y1="164.98566" x2="236.51605" y2="189.81846" gradientUnits="userSpaceOnUse" id="color-15"><stop offset="0" stop-color="#dcd2b4"/><stop offset="1" stop-color="#1d2c25"/></linearGradient><linearGradient x1="202.48357" y1="173.18337" x2="202.48357" y2="180.46375" gradientUnits="userSpaceOnUse" id="color-16"><stop offset="0" stop-color="#c8bea0"/><stop offset="1" stop-color="#1d2c25"/></linearGradient><linearGradient x1="182.28265" y1="166.12187" x2="182.28265" y2="184.04051" gradientUnits="userSpaceOnUse" id="color-17"><stop offset="0" stop-color="#c8bea0"/><stop offset="1" stop-color="#1d2c25"/></linearGradient><linearGradient x1="192.77822" y1="168.83809" x2="192.77822" y2="184.60133" gradientUnits="userSpaceOnUse" id="color-18"><stop offset="0" stop-color="#c8bea0"/><stop offset="1" stop-color="#1d2c25"/></linearGradient><linearGradient x1="202.94805" y1="171.05863" x2="202.94805" y2="184.16621" gradientUnits="userSpaceOnUse" id="color-19"><stop offset="0" stop-color="#c8bea0"/><stop offset="1" stop-color="#1d2c25"/></linearGradient><linearGradient x1="213.09108" y1="170.73009" x2="213.09108" y2="183.80698" gradientUnits="userSpaceOnUse" id="color-20"><stop offset="0" stop-color="#c8bea0"/><stop offset="1" stop-color="#1d2c25"/></linearGradient><linearGradient x1="221.96082" y1="172.51188" x2="221.96082" y2="183.09748" gradientUnits="userSpaceOnUse" id="color-21"><stop offset="0" stop-color="#c8bea0"/><stop offset="1" stop-color="#1d2c25"/></linearGradient><linearGradient x1="182.36374" y1="173.31337" x2="182.36374" y2="178.03462" gradientUnits="userSpaceOnUse" id="color-22"><stop offset="0" stop-color="#dcd2b4"/><stop offset="1" stop-color="#1d2c25"/></linearGradient><linearGradient x1="192.82666" y1="174.39363" x2="192.82666" y2="179.12165" gradientUnits="userSpaceOnUse" id="color-23"><stop offset="0" stop-color="#dcd2b4"/><stop offset="1" stop-color="#1d2c25"/></linearGradient><linearGradient x1="202.81538" y1="175.42924" x2="202.81538" y2="180.15215" gradientUnits="userSpaceOnUse" id="color-24"><stop offset="0" stop-color="#dcd2b4"/><stop offset="1" stop-color="#1d2c25"/></linearGradient><linearGradient x1="212.96674" y1="175.47024" x2="212.96674" y2="180.19676" gradientUnits="userSpaceOnUse" id="color-25"><stop offset="0" stop-color="#dcd2b4"/><stop offset="1" stop-color="#1d2c25"/></linearGradient><linearGradient x1="221.75361" y1="175.85844" x2="221.75361" y2="180.58652" gradientUnits="userSpaceOnUse" id="color-26"><stop offset="0" stop-color="#dcd2b4"/><stop offset="1" stop-color="#1d2c25"/></linearGradient></defs><g transform="translate(-142.60991,-118.58329)"><g data-paper-data="{&quot;isPaintingLayer&quot;:true}" fill="none" fill-rule="nonzero" stroke="#76ffff" stroke-width="0.5" stroke-linecap="butt" stroke-linejoin="miter" stroke-miterlimit="10" stroke-dasharray="" stroke-dashoffset="0" font-family="none" font-weight="none" font-size="none" text-anchor="none" style="mix-blend-mode: normal"><g data-paper-data="{&quot;origPos&quot;:null,&quot;origRot&quot;:0}" id="PELVIS"><path d="M147.93775,194.94327c-6.71397,-1.27885 -4.92854,-13.37739 -4.67628,-19.87651c0.27775,-6.8719 0.76144,-16.73523 4.6603,-21.93297c4.4354,-6.01486 11.11927,-0.09356 15.92663,-4.56057c5.53265,-5.25845 2.45658,-14.90642 4.26374,-21.72714c8.70943,0.12906 2.39598,28.02326 1.8913,33.99157c-1.18753,13.17094 -0.94016,26.38211 -0.59828,39.60422c0.04748,4.90126 0.84062,11.52142 -0.43389,16.14567c-1.2744,4.62237 -6.37601,7.79847 -8.05958,1.57683c-0.98753,-3.75516 2.02151,-9.93514 1.64504,-14.24703c-0.63756,-7.48136 -4.23221,-8.14925 -14.61898,-8.97408zM162.34942,160.70491c-1.66026,-0.94555 -7.88937,-0.91333 -10.20152,2.08221c-1.37222,1.85133 -1.71364,5.45263 -2.32443,8.77101c-1.22879,6.7637 -0.67879,11.34552 3.50363,13.21243c2.88775,1.21162 3.86414,0.94893 7.0004,1.31201c3.13627,0.36307 3.15782,-4.15448 2.79309,-5.82927c-0.36474,-1.67479 -2.46326,-0.41104 -3.30213,-2.13881c-0.58069,-1.32407 -0.94948,-7.14175 0.39713,-8.61841c1.34648,-1.47477 2.5663,0.2971 3.25452,-2.76057c0.68835,-3.05955 0.53957,-5.08506 -1.12069,-6.0306z" id="Shape" fill="url(#color-1)"/><path d="M170.07074,158.45954c1.51234,0.30095 2.4207,1.03358 2.62911,2.18677c0.21682,1.03019 0.33913,2.04945 0.46012,3.06663c0.17659,3.03381 -0.32129,6.11542 -0.43114,9.11607c-0.09278,2.75088 -0.1841,5.50192 -0.28542,8.37769l-0.09378,1.37186c-2.11546,1.51163 -5.08772,0.16434 -5.75439,-1.29555c-0.17353,-0.26993 -0.24243,-0.65553 -0.31291,-1.03941c-0.44218,-1.9355 -0.50499,-3.82517 -0.36879,-5.81768c0.144,-3.5002 0.38238,-6.98756 0.7238,-10.58888c0.07657,-1.12019 0.24923,-2.23117 0.61079,-3.31837c0.36168,-1.0891 1.18174,-1.87338 2.82261,-2.05913z" id="Shape" fill="url(#color-2)"/></g><g data-paper-data="{&quot;origPos&quot;:null,&quot;origRot&quot;:0}" id="RIBCAGE"><path d="M229.55962,140.96673l-33.05346,1.44497l-1.17583,-9.42607c2.19967,-11.16945 36.80281,-10.05103 36.80281,-10.05103z" id="Shape" fill="url(#color-3)"/><path d="M223.29749,228.37711c-9.74994,5.27373 -33.87615,-8.94531 -33.87615,-8.94531l4.81706,-11.61979l28.94485,2.59753z" id="Shape" fill="url(#color-4)"/><path d="M230.29774,118.95541c1.94293,-0.40254 3.91378,0.20133 5.54002,1.64454c3.03727,4.61992 -0.70728,18.75167 -1.43732,23.81469c-1.0033,7.66712 -2.29013,15.3014 -3.95949,22.89332c-0.62105,0.68144 -1.49307,0.83224 -2.2279,0.36954c-2.46109,-6.0599 -1.20855,-15.9582 -1.03372,-22.71803c0.20739,-7.25766 -1.18687,-20.47764 3.11843,-26.00406z" id="Shape" fill="url(#color-5)"/><path d="M218.0394,120.29792c1.97707,-0.90209 3.73098,-1.32651 5.54611,0.14047c1.09392,13.43315 1.01535,29.99757 -0.94957,43.32836c-2.03669,1.7744 -2.33021,1.8663 -4.03303,1.54329c-4.14408,-13.66229 -5.12888,-31.47888 -0.56352,-45.01212z" id="Shape" fill="url(#color-6)"/><path d="M208.54797,124.59839c1.08046,8.03423 1.68401,16.01324 1.891,24.19809c0.19453,4.16495 2.82307,14.76429 0.30338,17.98756c-3.74892,0.19538 -6.93529,-23.27537 -7.56041,-26.73682c-0.62643,-3.46351 -1.8425,-10.88597 -0.74917,-14.27436c1.33489,-4.11376 3.42805,-2.49064 6.11521,-1.17446z" id="Shape" fill="url(#color-7)"/><path d="M195.60273,129.00062c2.26916,6.03768 2.71771,13.49716 4.08936,20.05841c1.1463,5.65595 3.40693,11.81852 2.80774,17.77589c-4.49534,-2.90631 -14.3527,-36.68913 -6.8971,-37.83429z" id="Shape" fill="url(#color-8)"/><path d="M218.46868,126.6242c-8.28275,2.05449 -16.50501,4.61758 -24.58093,7.82699l0.8076,-4.80418c6.74523,-10.39148 36.46586,-10.7175 36.46586,-10.7175l2.43415,6.4325c-5.07078,-0.08353 -10.0824,0.33948 -15.12669,1.26219z" id="Shape" fill="url(#color-9)"/><path d="M215.03999,187.99752l1.99402,-1.14997c0.64885,0.32687 1.2893,0.77672 1.92817,1.22831c2.44183,4.9267 -1.10459,17.57471 -1.75561,22.89671c-0.69516,5.94626 -1.27583,11.65402 -2.81739,17.37643c-1.4071,0.96807 -2.97053,1.41455 -4.603,1.47731c-4.47827,-3.15608 -1.17354,-15.07683 -0.46057,-19.89006c1.00343,-7.66901 2.93925,-14.97833 5.71439,-21.93872z" id="Shape" fill="url(#color-10)"/><path d="M226.39316,188.68438c4.53789,2.28377 2.01909,13.91978 1.62512,18.26835c-0.70124,7.45033 -1.29812,14.78879 -1.99949,22.24101c-6.59295,6.77018 -5.41254,-13.30754 -5.24232,-15.79771c0.42666,-4.84829 0.12242,-24.21675 5.61669,-24.71166z" id="Shape" fill="url(#color-11)"/><path d="M208.91612,189.29876c-1.62884,12.61634 -5.28816,25.50113 -8.239,37.84046l-1.51148,1.07996c-1.24297,-0.01802 -2.45327,-0.53576 -3.54356,-1.41532c-0.06455,-4.65149 9.31439,-42.35998 13.29403,-37.50509z" id="Shape" fill="url(#color-12)"/><path d="M198.71142,188.61897c4.09803,1.72935 -6.58758,29.1174 -8.03551,33.46984l-1.96,0.65232c-6.12925,-2.84372 5.86895,-31.21078 9.9955,-34.12215z" id="Shape" fill="url(#color-13)"/><path d="M205.65875,224.32493c4.9009,1.19674 9.04003,2.30339 12.41786,1.94109c2.4974,-0.08851 5.04431,-0.92272 7.34183,-2.2893l-0.49614,5.84342c-4.52311,3.11721 -18.25356,2.15513 -26.4722,-0.93047c-7.83915,-3.04167 -10.89336,-7.41371 -10.89336,-7.41371l0.48616,-5.71871c2.13572,1.00059 11.86988,7.14913 17.61587,8.56768z" id="Shape" fill="url(#color-14)"/><path d="M237.4978,164.98567c1.5038,0.42585 2.41071,1.15829 2.52461,2.30055c0.21682,1.03019 0.33913,2.04945 0.35707,3.18058c0.08063,3.02271 -0.51177,6.09336 -0.71613,9.08308c-0.09278,2.75088 -0.37458,5.47987 -0.5704,8.3447c-0.03415,0.49954 -0.06816,0.9972 -0.09364,1.36997c-2.10705,1.38863 -5.07224,-0.0837 -5.7305,-1.66659c-0.0689,-0.3856 -0.24243,-0.65553 -0.31133,-1.04114c-0.3478,-1.92266 -0.40194,-3.93912 -0.17831,-5.79563c0.23838,-3.48736 0.57126,-6.96379 1.00878,-10.55589c0.07657,-1.12019 0.34216,-2.21851 0.70529,-3.30744c0.45606,-1.07626 1.27613,-1.86054 3.00455,-1.91219z" id="Shape" fill="url(#color-15)"/></g><g data-paper-data="{&quot;origPos&quot;:null,&quot;origRot&quot;:0}" id="SPINE"><path d="M223.42096,180.45404c-13.3217,0.09034 -27.46579,-0.41612 -40.41815,-2.92068c-1.72929,-1.32925 -2.04207,-2.37056 -1.27396,-3.78832c2.95346,-1.16477 6.81615,-0.216 10.04838,0.15818c4.08572,0.47299 8.19837,0.57339 12.29409,0.92166c6.48849,0.37544 13.03904,1.25775 19.56241,2.51644z" id="Shape" fill="url(#color-16)"/><path d="M183.11165,166.12187c5.28906,1.11389 2.30188,12.5698 1.78084,17.40525c-9.37985,4.06164 -7.43998,-17.30706 -1.78084,-17.40525z" id="Shape" fill="url(#color-17)"/><path d="M193.55965,168.83809c5.28906,1.11389 2.40406,11.07495 1.92558,15.28785c-9.44888,3.67793 -7.58472,-15.18966 -1.92558,-15.28785z" id="Shape" fill="url(#color-18)"/><path d="M202.98783,171.05863c5.28906,1.11389 5.11741,10.63572 0.9544,12.66556c-6.54493,3.25886 -6.61354,-12.56736 -0.9544,-12.66556z" id="Shape" fill="url(#color-19)"/><path d="M213.16473,170.73009c5.28906,1.11389 5.11741,10.63572 0.9544,12.66556c-6.63103,3.12493 -6.70806,-12.5783 -0.9544,-12.66556z" id="Shape" fill="url(#color-20)"/><path d="M222.04844,172.51188c4.25204,0.86987 4.10369,8.63597 0.73672,10.25445c-5.3455,2.52041 -5.43641,-10.17106 -0.73672,-10.25445z" id="Shape" fill="url(#color-21)"/><path d="M182.87283,178.01991c-0.96653,0.13986 -1.96087,-0.72859 -2.05769,-2.12062l0.00854,-0.12489c-0.10536,-1.26713 0.63726,-2.31213 1.50915,-2.46103c0.56996,0.06598 1.12299,0.37984 1.36674,1.03744c0.0861,0.13394 0.16354,0.39465 0.15501,0.51954c0.07889,0.26088 0.06195,0.50876 0.04487,0.75854c0.04342,0.75837 -0.14473,2.11739 -1.02662,2.39102z" id="Shape" fill="url(#color-22)"/><path d="M193.33691,179.10734c-0.96786,0.1378 -1.96218,-0.73066 -2.05902,-2.12268l0.00854,-0.12489c-0.10392,-1.26696 0.63713,-2.31024 1.51061,-2.46087c0.5785,-0.05891 1.12286,0.38174 1.36529,1.03727c0.08743,0.13599 0.16499,0.39481 0.15645,0.5197c0.07743,0.26072 0.06049,0.50859 0.04342,0.75837c0.04487,0.75854 -0.14473,2.11739 -1.02529,2.39308z" id="Shape" fill="url(#color-23)"/><path d="M203.32567,180.13784c-0.96786,0.1378 -1.96218,-0.73066 -2.05902,-2.12268l0.00854,-0.12489c-0.10392,-1.26696 0.63713,-2.31024 1.50915,-2.46103c0.57142,0.06615 1.12431,0.38191 1.36674,1.03744c0.08597,0.13583 0.16499,0.39481 0.15645,0.5197c0.07743,0.26072 0.06036,0.51049 0.04342,0.75837c0.04342,0.75837 -0.14473,2.11739 -1.02529,2.39308z" id="Shape" fill="url(#color-24)"/><path d="M213.47709,180.18208c-0.96799,0.13969 -1.96231,-0.72876 -2.05914,-2.12078l0.00854,-0.12489c-0.10392,-1.26696 0.63726,-2.31213 1.51061,-2.46087c0.5785,-0.05891 1.12299,0.37984 1.36542,1.03538c0.08743,0.13599 0.16487,0.39671 0.15632,0.5216c0.07756,0.25882 0.06049,0.50859 0.04342,0.75837c0.04487,0.75854 -0.14473,2.11739 -1.02516,2.39119z" id="Shape" fill="url(#color-25)"/><path d="M222.26396,180.57184c-0.96799,0.13969 -1.96231,-0.72876 -2.05914,-2.12078l0.00854,-0.12489c-0.10392,-1.26696 0.63726,-2.31213 1.51074,-2.46275c0.57838,-0.05701 1.12286,0.38174 1.36529,1.03727c0.08743,0.13599 0.16487,0.39671 0.15632,0.5216c0.07756,0.25882 0.06049,0.50859 0.04342,0.75837c0.03647,0.88154 -0.15314,2.24039 -1.02516,2.39119z" id="Shape" fill="url(#color-26)"/></g></g></g></svg>