<svg version="1.1" xmlns="http://www.w3.org/2000/svg" xmlns:xlink="http://www.w3.org/1999/xlink" width="1.45933" height="2.1323"><g transform="translate(-238.57842,-178.91542)"><g data-paper-data="{&quot;isPaintingLayer&quot;:true}" fill="none" fill-rule="nonzero" stroke="none" stroke-width="1" stroke-linecap="butt" stroke-linejoin="miter" stroke-miterlimit="10" stroke-dasharray="" stroke-dashoffset="0" font-family="none" font-weight="none" font-size="none" text-anchor="none" style="mix-blend-mode: normal"><path d="M239.56655,178.91542c0,0 0.34742,0.28747 0.43225,0.65879c0,0 0.08775,0.70893 -0.00089,0.93209c0,0 -0.27449,0.43793 -0.4195,0.54081c0,0 -0.86971,-0.69658 -0.99304,-1.0002c-0.00695,-0.0006 0.60008,-1.049 0.98118,-1.13149z" data-paper-data="{&quot;origRot&quot;:0,&quot;origPos&quot;:null}" id="Shape" fill="#7fccef"/><path d="M238.57842,180.04631l0.48338,-0.03814l0.38012,0.45897l0.21017,0.50643c-0.02272,0.03355 -0.05191,0.05766 -0.07368,0.07354c0,0 -0.87019,-0.68775 -0.99998,-1.00081z" data-paper-data="{&quot;origRot&quot;:0,&quot;origPos&quot;:null}" id="Shape" fill="#678fe4"/><path d="M239.69618,179.88542l-0.25426,0.58172c-0.22127,-0.03687 -0.8635,-0.42084 -0.8635,-0.42084c0.22199,-0.23827 0.8379,-0.40701 0.8379,-0.40701z" data-paper-data="{&quot;origRot&quot;:0,&quot;origPos&quot;:null}" id="Shape" fill="#73b5e4"/><path d="M239.57841,181.04712c-0.08543,-0.22932 -0.09919,-0.36368 -0.13649,-0.57997c-0.05942,-0.32473 -0.0256,-0.82784 -0.0256,-0.82784c0.00848,-0.15907 0.15023,-0.72388 0.15023,-0.72388c0,0 0.34,0.29571 0.43225,0.65879c0,0 0.08822,0.70009 -0.00089,0.93209c0,0 -0.2745,0.43793 -0.41951,0.54081z" data-paper-data="{&quot;origRot&quot;:0,&quot;origPos&quot;:null}" id="Shape" fill="#92d7ef"/><path d="M239.87082,180.27338l-0.43631,0.202c-0.05942,-0.32473 -0.0256,-0.82784 -0.0256,-0.82784l0.44947,0.07434l0.161,0.12044c0.0147,0.11668 0.01457,0.24984 0.01492,0.37416z" data-paper-data="{&quot;origRot&quot;:0,&quot;origPos&quot;:null}" id="Shape" fill="#7fccef"/><path d="M239.73087,180.41221c-0.00235,0.04419 -0.08465,0.40994 -0.13069,0.61903c-0.00741,0.00824 -0.01436,0.00763 -0.02177,0.01588c-0.08543,-0.22932 -0.09919,-0.36368 -0.13648,-0.57997c-0.05942,-0.32473 -0.0256,-0.82784 -0.0256,-0.82784c0.00848,-0.15907 0.15023,-0.72388 0.15023,-0.72388c0,0 0.01342,0.01004 0.03331,0.02951c0.04883,0.26167 0.1193,0.64063 0.11552,0.71133c-0.00566,0.10604 0.01183,0.69349 0.01549,0.75595z" data-paper-data="{&quot;origRot&quot;:0,&quot;origPos&quot;:null}" id="Shape" fill="#83cdef"/><path d="M239.9988,179.57421c0,0 0.08822,0.70009 -0.00831,0.94033c-0.12169,-0.07266 -0.12709,-0.23292 -0.12709,-0.23292l0.00192,-0.55913c0.06815,-0.10065 0.13347,-0.14826 0.13347,-0.14826z" data-paper-data="{&quot;origRot&quot;:0,&quot;origPos&quot;:null}" id="Shape" fill="#bee6f1"/><path d="M239.58535,181.04771c-0.08543,-0.22932 -0.09919,-0.36368 -0.13648,-0.57997l0.42195,-0.19437l0.14475,0.16343c-0.00141,0.02651 -0.00977,0.05242 -0.01765,0.0695c0,0 -0.2745,0.43793 -0.41256,0.54142z" data-paper-data="{&quot;origRot&quot;:0,&quot;origPos&quot;:null}" id="Shape" fill="#73b5e4"/><path d="M239.57841,181.04712c0,0 -0.02036,-0.01064 -0.04719,-0.03071c-0.03378,-0.02068 -0.07403,-0.05079 -0.12816,-0.08209c-0.02683,-0.02007 -0.05366,-0.04014 -0.0805,-0.06022c-0.02683,-0.02007 -0.06014,-0.04958 -0.09344,-0.0791c-0.06014,-0.04958 -0.12628,-0.11744 -0.19289,-0.17647c-0.0592,-0.06726 -0.12533,-0.13512 -0.17806,-0.19294c-0.05225,-0.06666 -0.10497,-0.12448 -0.14381,-0.1811c-0.08462,-0.11384 -0.12945,-0.18874 -0.12945,-0.18874c0,0 0.05872,0.0761 0.14429,0.17226c0.04625,0.04839 0.09897,0.1062 0.15123,0.17286c0.05967,0.05842 0.11886,0.12568 0.17806,0.19294c0.0592,0.06726 0.12581,0.12628 0.18594,0.17586c0.05967,0.05842 0.11981,0.10801 0.16653,0.14756c0.04672,0.03955 0.09344,0.0791 0.12028,0.09917c0.02683,0.02007 0.04719,0.03071 0.04719,0.03071z" data-paper-data="{&quot;origRot&quot;:0,&quot;origPos&quot;:null}" id="Shape" fill="#3b73e4"/><path d="M239.56655,178.91542c0,0 -0.00235,0.04419 -0.0126,0.10545c-0.01024,0.06126 -0.02143,0.1402 -0.03956,0.21853c-0.01813,0.07833 -0.03626,0.15667 -0.05345,0.21733c-0.01719,0.06066 -0.02602,0.09541 -0.02602,0.09541c0,0 -0.00459,-0.04479 0.00566,-0.10604c0.01024,-0.06126 0.02143,-0.1402 0.03956,-0.21853c0.01813,-0.07833 0.03626,-0.15667 0.05345,-0.21733c0.01719,-0.06066 0.03296,-0.09481 0.03296,-0.09481z" data-paper-data="{&quot;origRot&quot;:0,&quot;origPos&quot;:null}" id="Shape" fill="#bee6f1"/><path d="M239.34594,179.65098c0,0 -0.04308,0.02291 -0.10005,0.04462c-0.06438,0.02995 -0.14265,0.0587 -0.22139,0.09628c-0.07827,0.02875 -0.16395,0.06574 -0.22092,0.08745c-0.02872,0.01527 -0.05697,0.02171 -0.0718,0.03819c-0.01483,0.01647 -0.02177,0.01588 -0.02177,0.01588c0,0 0.00741,-0.00824 0.02225,-0.02471c0.01483,-0.01647 0.03661,-0.03235 0.06579,-0.05646c0.05791,-0.03939 0.13665,-0.07698 0.22234,-0.11396c0.08569,-0.03699 0.16348,-0.0569 0.22739,-0.07801c0.05555,0.0048 0.09816,-0.00927 0.09816,-0.00927z" data-paper-data="{&quot;origRot&quot;:0,&quot;origPos&quot;:null}" id="Shape" fill="#bee6f1"/><path d="M239.73087,180.41221c-0.00235,0.04419 -0.08465,0.40994 -0.13069,0.61903c-0.00741,0.00824 -0.01436,0.00763 -0.02177,0.01588c-0.08543,-0.22932 -0.09919,-0.36368 -0.13648,-0.57997l0.28577,-0.12623c-0.00189,0.03535 -0.0033,0.06186 0.00317,0.07129z" data-paper-data="{&quot;origRot&quot;:0,&quot;origPos&quot;:null}" id="Shape" fill="#679fe4"/><path d="M239.7277,180.34091l-0.28577,0.12623c-0.05942,-0.32473 -0.0256,-0.82784 -0.0256,-0.82784l0.29718,0.05231c-0.0006,0.14199 0.00832,0.49788 0.0142,0.64931z" data-paper-data="{&quot;origRot&quot;:0,&quot;origPos&quot;:null}" id="Shape" fill="#7cbfef"/></g></g></svg>