<svg version="1.1" xmlns="http://www.w3.org/2000/svg" xmlns:xlink="http://www.w3.org/1999/xlink" width="151.02009" height="267.29234" viewBox="0,0,151.02009,267.29234"><defs><linearGradient x1="299.01437" y1="62.47239" x2="212.57121" y2="251.2837" gradientUnits="userSpaceOnUse" id="color-1"><stop offset="0" stop-color="#dcd2b4"/><stop offset="1" stop-color="#002b1a"/></linearGradient><linearGradient x1="202.13486" y1="253.89848" x2="191.11481" y2="277.96873" gradientUnits="userSpaceOnUse" id="color-2"><stop offset="0" stop-color="#aaa082"/><stop offset="1" stop-color="#002b1a"/></linearGradient><linearGradient x1="204.13443" y1="287.04445" x2="185.40954" y2="327.94382" gradientUnits="userSpaceOnUse" id="color-3"><stop offset="0" stop-color="#c8bea0"/><stop offset="1" stop-color="#002b1a"/></linearGradient><linearGradient x1="189.30796" y1="283.42154" x2="168.80064" y2="328.21414" gradientUnits="userSpaceOnUse" id="color-4"><stop offset="0" stop-color="#c8bea0"/><stop offset="1" stop-color="#002b1a"/></linearGradient><linearGradient x1="179.30879" y1="278.3876" x2="162.23658" y2="315.67715" gradientUnits="userSpaceOnUse" id="color-5"><stop offset="0" stop-color="#c8bea0"/><stop offset="1" stop-color="#002b1a"/></linearGradient><linearGradient x1="224.82888" y1="270.93885" x2="212.28612" y2="298.33506" gradientUnits="userSpaceOnUse" id="color-6"><stop offset="0" stop-color="#c8bea0"/><stop offset="1" stop-color="#002b1a"/></linearGradient></defs><g transform="translate(-164.35619,-63.79675)"><g data-paper-data="{&quot;isPaintingLayer&quot;:true}" fill="none" fill-rule="nonzero" stroke="none" stroke-width="1" stroke-linecap="butt" stroke-linejoin="miter" stroke-miterlimit="10" stroke-dasharray="" stroke-dashoffset="0" font-family="none" font-weight="none" font-size="none" text-anchor="none" style="mix-blend-mode: normal"><path d="M202.50917,246.67701c-8.50842,-15.4521 1.08617,-29.47501 6.97711,-44.0083c6.74723,-16.43066 15.22173,-31.79666 25.48737,-46.3246c9.24812,-12.92857 18.02928,-26.00922 26.17976,-39.54448c3.99515,-6.91831 9.05982,-13.9608 10.25499,-21.80953c1.4039,-8.50801 4.70222,-38.46232 33.57939,-29.55728c28.87611,8.90839 -11.25292,49.37884 -14.61833,54.32049c-10.85145,15.54613 -19.22446,33.85794 -28.81347,50.30995c-9.45022,16.0136 -14.77626,33.64361 -23.52586,49.89095c-8.84552,15.73063 -14.24351,31.15359 -35.52096,26.7228zM287.03957,96.07937c-8.71472,-0.96485 -20.73736,20.73967 -24.68858,26.69951c-7.15183,11.20068 -13.51423,23.14944 -19.87202,35.09603c-5.50255,10.05257 -11.6333,19.65507 -17.30065,29.40846c-5.01268,8.51768 -18.14409,24.75729 -14.09252,35.57005l7.29862,4.618c10.09713,-5.84829 14.02857,-21.52002 19.55356,-30.83619c6.6895,-11.35492 14.07605,-22.47729 20.76199,-33.8334c5.59386,-9.5337 39.04738,-59.02456 28.33958,-66.72246z" data-paper-data="{&quot;origPos&quot;:null,&quot;origRot&quot;:0}" id="LEFT-ARM-RAD-+-ULN" fill="url(#color-1)"/><g data-paper-data="{&quot;origPos&quot;:null,&quot;origRot&quot;:0}" id="LEFT-HAND"><path d="M182.25813,265.88059c1.34261,-3.43345 3.31947,-6.41111 6.15569,-8.86156c3.37204,-2.5159 7.63194,-3.76247 11.87141,-3.31752c3.54347,0.20905 6.1561,2.5385 8.69986,5.08547c0.72412,0.96679 1.14608,2.08069 1.02973,3.25549c-0.2021,3.08504 -0.63892,6.09177 -1.31153,9.02353c-2.13253,5.10876 -7.08747,8.5507 -13.00328,8.51961c-0.53476,0.0621 -1.00066,-0.09333 -1.46655,-0.24876c-3.893,-1.53928 -7.58084,-3.73903 -10.89053,-6.30103c-2.05543,-1.65515 -2.36209,-3.9405 -1.0848,-7.15524z" id="Shape" fill="url(#color-2)"/><path d="M192.27951,331.08909l-5.15438,-2.44851c-0.98129,-1.7815 -1.35682,-3.84933 -0.7317,-5.82382c1.56869,-8.20882 3.13845,-16.42099 4.86838,-24.33181c0.64661,-3.66936 1.75805,-7.17993 3.26546,-10.3142c0.55625,-1.75696 1.74319,-3.05931 3.4884,-3.6907c1.53648,0.02789 2.18961,1.2189 2.61263,2.32945c1.42675,3.62845 1.71655,7.60651 1.071,11.27251c-1.063,4.98457 -1.19316,10.27664 -2.18623,15.04033c-1.15537,4.46904 -2.47448,8.63555 -4.09931,12.94797c-1.09101,1.81906 -1.88093,3.49437 -3.13424,5.01878z" id="Shape" fill="url(#color-3)"/><path d="M171.86949,329.61914c-1.91202,-2.09571 -2.38348,-4.68025 -1.61956,-7.09314c0.74148,-3.14929 1.4794,-6.29977 2.22087,-9.44907c1.38347,-6.81649 3.1629,-13.25667 5.48172,-19.76112c0.90378,-2.85465 2.34231,-5.77139 3.47976,-8.54438c0.62512,-1.97449 2.50912,-3.04429 4.74622,-2.78266c0.09237,0.51553 0.41947,1.10936 0.21074,1.76864c-0.39039,2.0528 -0.24853,4.03897 0.13057,6.10797c0.25717,0.81471 0.21074,1.76864 -0.06686,2.64545c-1.38347,6.81649 -1.83515,13.94384 -3.98917,20.74746c-1.32017,4.16985 -3.10979,8.18309 -5.29181,11.82122c-0.92516,2.1149 -3.01789,3.84397 -5.30247,4.53962z" id="Shape" fill="url(#color-4)"/><path d="M164.60414,316.76109c-1.66906,-8.56378 5.41042,-33.37156 11.57274,-39.80736c1.67835,2.01405 2.14981,4.59859 1.38589,7.01148c-1.5289,4.82913 -3.05673,9.65493 -4.58563,14.48406c-0.90272,2.8513 -1.87536,5.92347 -2.54335,8.85308c-0.71548,3.88688 -2.83219,7.30629 -5.82965,9.45874z" id="Shape" fill="url(#color-5)"/><path d="M219.17256,301.48786c-2.35547,-1.51474 -3.89395,-3.97055 -4.06538,-6.69549c-0.34954,-1.33024 -0.46896,-2.58 -0.28624,-3.97687c0.28938,-7.422 -0.12079,-15.08109 -1.13566,-22.4572c-0.02706,-0.73424 -0.0495,-1.47064 0.0893,-1.90905c1.00171,0.08999 1.9335,0.40085 2.63412,0.63459c3.12139,1.52976 5.36512,4.21715 6.32598,7.69017c1.68948,6.87227 3.6137,13.82284 3.15846,20.949c-0.61955,4.40359 -1.43297,5.34585 -6.72058,5.76484z" id="Shape" fill="url(#color-6)"/></g></g></g></svg>