<svg version="1.1" xmlns="http://www.w3.org/2000/svg" xmlns:xlink="http://www.w3.org/1999/xlink" width="243.38622" height="271.01575" viewBox="0,0,243.38622,271.01575"><defs><linearGradient x1="149.24194" y1="206.85779" x2="149.24194" y2="227.37546" gradientUnits="userSpaceOnUse" id="color-1"><stop offset="0" stop-color="#c8bea0"/><stop offset="1" stop-color="#1d2c25"/></linearGradient><linearGradient x1="149.34414" y1="174.97964" x2="149.34414" y2="192.25482" gradientUnits="userSpaceOnUse" id="color-2"><stop offset="0" stop-color="#f0e6d2"/><stop offset="1" stop-color="#1d2c25"/></linearGradient><linearGradient x1="155.64912" y1="230.01258" x2="155.64912" y2="242.27224" gradientUnits="userSpaceOnUse" id="color-3"><stop offset="0" stop-color="#aaa082"/><stop offset="1" stop-color="#1d2c25"/></linearGradient><linearGradient x1="145.24348" y1="194.15775" x2="145.24348" y2="207.27885" gradientUnits="userSpaceOnUse" id="color-4"><stop offset="0" stop-color="#f0e6d2"/><stop offset="1" stop-color="#1d2c25"/></linearGradient><linearGradient x1="193.80396" y1="102.36382" x2="193.80396" y2="247.65941" gradientUnits="userSpaceOnUse" id="color-5"><stop offset="0" stop-color="#dcd2b4"/><stop offset="1" stop-color="#1d2c25"/></linearGradient><linearGradient x1="183.18853" y1="205.81698" x2="183.18853" y2="228.39741" gradientUnits="userSpaceOnUse" id="color-6"><stop offset="0" stop-color="#c8bea0"/><stop offset="1" stop-color="#1d2c25"/></linearGradient><linearGradient x1="191.46655" y1="170.09939" x2="191.46655" y2="204.38876" gradientUnits="userSpaceOnUse" id="color-7"><stop offset="0" stop-color="#000000"/><stop offset="1" stop-color="#1d2c25"/></linearGradient><linearGradient x1="191.93002" y1="193.03989" x2="191.93002" y2="198.24482" gradientUnits="userSpaceOnUse" id="color-8"><stop offset="0" stop-color="#000000"/><stop offset="1" stop-color="#1d2c25"/></linearGradient><linearGradient x1="207.41284" y1="218.88277" x2="207.41284" y2="249.1151" gradientUnits="userSpaceOnUse" id="color-9"><stop offset="0" stop-color="#000000"/><stop offset="1" stop-color="#1d2c25"/></linearGradient></defs><g transform="translate(0,21.90065)"><g data-paper-data="{&quot;isPaintingLayer&quot;:true}" fill="none" fill-rule="nonzero" stroke="none" stroke-width="1" stroke-linecap="butt" stroke-linejoin="miter" stroke-miterlimit="10" stroke-dasharray="" stroke-dashoffset="0" font-family="none" font-weight="none" font-size="none" text-anchor="none" style="mix-blend-mode: normal"><g id="RIGHT-FEMUR"><path d="" id="Shape" fill="#aaa082"/><path d="" id="Shape" fill="#dcd2b4"/><path d="" id="Shape" fill="#aaa082"/></g><g id="RIGHT-TIB-+-FIB" fill="#aaa082"><path d="" id="Shape"/><path d="" id="Shape"/><path d="" id="Shape"/><path d="" id="Shape"/></g><g id="LEFT-RADIUS-+-ULNA-+-HAND"><g id="LEFT-HAND"><path d="" id="Shape" fill="#aaa082"/><path d="" id="Shape" fill="#c8bea0"/><path d="" id="Shape" fill="#c8bea0"/><path d="" id="Shape" fill="#c8bea0"/><path d="" id="Shape" fill="#c8bea0"/></g><path d="" id="Shape" fill="#dcd2b4"/></g><g id="RIGHT-RADIUS-+-ULNA-+-HAND" fill="#c8bea0"><g id="RIGHT-HAND"><path d="" id="Shape"/><path d="" id="Shape"/><path d="" id="Shape"/><path d="" id="Shape"/><path d="" id="Shape"/></g><path d="" id="RIGHT-RADIUS-+-ULNA"/></g><g id="PELVIS" fill="#dcd2b4"><path d="" id="Shape"/><path d="" id="Shape"/></g><g id="RIBCAGE"><path d="" id="Shape" fill="#c8bea0"/><path d="" id="Shape" fill="#aaa082"/><path d="" id="Shape" fill="#dcd2b4"/><path d="" id="Shape" fill="#dcd2b4"/><path d="" id="Shape" fill="#dcd2b4"/><path d="" id="Shape" fill="#dcd2b4"/><path d="" id="Shape" fill="#dcd2b4"/><path d="" id="Shape" fill="#dcd2b4"/><path d="" id="Shape" fill="#dcd2b4"/><path d="" id="Shape" fill="#dcd2b4"/><path d="" id="Shape" fill="#dcd2b4"/><path d="" id="Shape" fill="#dcd2b4"/></g><g id="SPINE"><path d="" id="Shape" fill="#c8bea0"/><path d="" id="Shape" fill="#c8bea0"/><path d="" id="Shape" fill="#c8bea0"/><path d="" id="Shape" fill="#c8bea0"/><path d="" id="Shape" fill="#c8bea0"/><path d="" id="Shape" fill="#c8bea0"/><path d="" id="Shape" fill="#dcd2b4"/><path d="" id="Shape" fill="#dcd2b4"/><path d="" id="Shape" fill="#dcd2b4"/><path d="" id="Shape" fill="#dcd2b4"/><path d="" id="Shape" fill="#dcd2b4"/></g><g id="LEFT-FEMUR"><path d="" id="Shape" fill="#c8bea0"/><path d="" id="Shape" fill="#f0e6d2"/></g><g id="LEFT-TIB-+-FIB" fill="#c8bea0"><path d="" id="Shape"/><path d="" id="Shape"/><path d="" id="Shape"/><path d="" id="Shape"/><path d="" id="Shape"/></g><g data-paper-data="{&quot;origPos&quot;:null,&quot;origRot&quot;:0}" id="LEFT-HUMERUS"><path d="" id="Shape" fill="#c8bea0"/><path d="" id="Shape" fill="#c8bea0"/><path d="M119.0268,-18.39406c-3.66021,12.14718 3.66021,-12.14718 0,0z" id="Shape" fill="#dcd2b4"/></g><g data-paper-data="{&quot;origPos&quot;:null,&quot;origRot&quot;:0}" id="HEAD"><path d="M157.63983,206.8673c0.49595,5.14923 3.095,14.6108 3.59094,19.76003c-1.08633,0.25157 -20.4002,2.90764 -22.99908,-3.59468c-1.95449,-1.91576 -0.41496,-6.82067 -0.19381,-9.23694c2.7044,-3.86571 13.89553,-7.13767 19.60195,-6.9284z" id="Shape" fill="url(#color-1)"/><path d="M138.67364,178.97661c2.60093,-2.56387 19.58808,-4.15379 22.90611,-3.98469c0.00862,3.14421 -7.60076,13.96878 -8.38177,16.23644c-1.56801,1.38814 -13.15704,1.16861 -14.48142,0.51007c-2.14511,-5.0489 -2.12862,-7.82649 -0.04292,-12.76182z" id="Shape" fill="url(#color-2)"/><path d="M169.12785,241.6879c-6.40628,0.38975 -23.63444,1.06693 -25.1661,0.05004c-2.23733,-3.56225 -2.37191,-5.77421 -0.4431,-10.33185c4.33707,-1.18846 8.91219,-1.4668 13.50962,-1.37835z" id="Shape" fill="url(#color-3)"/><path d="M153.59102,206.74266c-1.94588,1.22846 -12.49057,0.0208 -14.53746,-0.41111c-2.60675,-0.58052 -4.21694,-2.88819 -3.64304,-5.5114c0.15951,-0.38067 0.31075,-0.9435 0.47026,-1.32416c0.16231,-0.38084 0.50399,-0.76977 0.6663,-1.15061c2.83897,-1.65375 15.50292,-4.82984 18.30588,-4.07297c1.07247,2.52305 -0.68804,9.84704 -1.26194,12.47025z" id="Shape" fill="url(#color-4)"/><path d="M164.75722,242.32477c-8.47303,-3.37117 -14.9498,-10.1912 -17.68325,-18.90548c-1.151,-3.81383 -2.75389,-21.10651 -2.85228,-25.7263c0.06654,-7.96004 2.16873,-15.67296 8.62786,-21.24533c12.3779,-10.92638 9.50988,-21.85262 10.98156,-36.92674c1.28426,-12.10345 3.67733,-24.08889 14.03928,-31.93617c8.60948,-6.44231 24.19955,-6.83715 33.33346,-1.65701c20.35934,11.5258 33.62362,60.4838 32.05711,80.00397c-1.04621,13.01356 -0.85748,28.17214 -6.9352,40.01359c-5.74466,11.26474 -31.52797,31.33365 -71.56854,16.37947z" id="Shape" fill="url(#color-5)"/><path d="M170.32208,228.39741c-0.9379,-0.31109 -4.42667,-0.28432 -2.48942,-4.65699c1.94005,-4.37284 6.35549,-4.27332 5.63857,-7.00348c-0.71709,-2.73296 -6.81542,-3.28654 -7.07332,-7.52566c-0.2579,-4.23912 5.30008,-3.46719 7.89839,-3.07164c3.7045,0.51655 7.42008,1.21508 11.29797,1.53279c3.7073,0.51637 7.25212,1.41079 10.81926,2.67199c2.04689,0.43191 3.62335,2.18519 3.57313,4.40839c-0.64906,7.43904 -21.77143,13.53535 -29.66456,13.6446z" data-paper-data="{&quot;origPos&quot;:null}" id="Shape" fill="url(#color-6)"/><path d="M201.03311,201.45071c-8.59807,6.6299 -19.76763,1.20264 -24.36581,-7.95183c-3.7553,-7.35656 -1.49942,-18.59454 7.82699,-22.30668c5.39265,-1.99179 11.49943,-1.25324 16.29872,2.15314c1.15362,0.85441 2.31849,1.89361 3.30136,2.94389c1.2014,1.59342 2.21502,3.19546 2.88714,5.18924c1.42574,5.28095 2.64984,13.34514 -5.94839,19.97224z" data-paper-data="{&quot;origPos&quot;:null}" id="Shape" fill="url(#color-7)"/><path d="M196.07676,195.46277c-0.45902,1.50896 -1.68535,2.50816 -3.13848,2.78205c-2.21765,-0.23604 -4.5976,-0.09125 -5.15501,-3.20208c1.31856,-2.48585 3.56149,-1.88038 5.57465,-2.00286c1.47545,0.09291 2.64031,1.13211 2.71884,2.42289z" data-paper-data="{&quot;origPos&quot;:null}" id="Shape" fill="url(#color-8)"/><path d="M213.18631,244.81822c-8.65502,5.69378 -15.69367,6.57541 -20.29185,-2.57906c-3.7553,-7.35656 -1.49942,-18.59454 7.82978,-22.30685c5.02289,-1.9721 12.23848,-1.11554 16.29591,2.15332c1.15362,0.85441 2.32129,1.89344 3.30136,2.94389c1.2014,1.59342 2.21502,3.19546 2.88994,5.18906c1.60477,5.26725 -0.95589,8.63336 -10.02515,14.59965z" data-paper-data="{&quot;origPos&quot;:null}" id="Shape" fill="url(#color-9)"/></g></g></g></svg>