<svg version="1.1" xmlns="http://www.w3.org/2000/svg" xmlns:xlink="http://www.w3.org/1999/xlink" width="1.51444" height="2.06364"><g transform="translate(-238.60663,-179.06741)"><g data-paper-data="{&quot;isPaintingLayer&quot;:true}" fill="none" fill-rule="nonzero" stroke="none" stroke-width="1" stroke-linecap="butt" stroke-linejoin="miter" stroke-miterlimit="10" stroke-dasharray="" stroke-dashoffset="0" font-family="none" font-weight="none" font-size="none" text-anchor="none" style="mix-blend-mode: normal"><path d="M239.63208,179.06743c0,0 0.36054,0.27822 0.44857,0.63757c0,0 0.09107,0.68609 -0.00092,0.90206c0,0 -0.28486,0.42382 -0.43534,0.52339c0,0 -0.90256,-0.67415 -1.03054,-0.96799c-0.00721,-0.00057 0.62275,-1.01522 1.01824,-1.09505z" data-paper-data="{&quot;origRot&quot;:0,&quot;origPos&quot;:null}" id="Shape" fill="#7fccef"/><path d="M238.60664,180.1619l0.50163,-0.03691l0.39447,0.44419l0.21811,0.49012c-0.02358,0.03247 -0.05387,0.0558 -0.07646,0.07117c0,0 -0.90306,-0.6656 -1.03775,-0.96857z" data-paper-data="{&quot;origRot&quot;:0,&quot;origPos&quot;:null}" id="Shape" fill="#678fe4"/><path d="M239.76661,180.00619l-0.26387,0.56298c-0.22962,-0.03568 -0.89611,-0.40728 -0.89611,-0.40728c0.23037,-0.2306 0.86955,-0.3939 0.86955,-0.3939z" data-paper-data="{&quot;origRot&quot;:0,&quot;origPos&quot;:null}" id="Shape" fill="#73b5e4"/><path d="M239.64439,181.13047c-0.08866,-0.22194 -0.10295,-0.35197 -0.14165,-0.56129c-0.06166,-0.31427 -0.02656,-0.80118 -0.02656,-0.80118c0.0088,-0.15394 0.1559,-0.70056 0.1559,-0.70056c0,0 0.35285,0.28618 0.44857,0.63756c0,0 0.09155,0.67754 -0.00092,0.90206c0,0 -0.28487,0.42382 -0.43535,0.52339z" data-paper-data="{&quot;origRot&quot;:0,&quot;origPos&quot;:null}" id="Shape" fill="#92d7ef"/><path d="M239.94784,180.38165l-0.45279,0.19549c-0.06166,-0.31427 -0.02657,-0.80118 -0.02657,-0.80118l0.46644,0.07194l0.16708,0.11656c0.01526,0.11292 0.01513,0.24179 0.01549,0.36211z" data-paper-data="{&quot;origRot&quot;:0,&quot;origPos&quot;:null}" id="Shape" fill="#7fccef"/><path d="M239.80261,180.51601c-0.00244,0.04276 -0.08785,0.39674 -0.13563,0.5991c-0.0077,0.00797 -0.0149,0.00738 -0.02259,0.01536c-0.08866,-0.22194 -0.10294,-0.35197 -0.14164,-0.56129c-0.06166,-0.31427 -0.02657,-0.80118 -0.02657,-0.80118c0.0088,-0.15394 0.1559,-0.70056 0.1559,-0.70056c0,0 0.01393,0.00971 0.03456,0.02855c0.05067,0.25324 0.12381,0.62 0.11989,0.68842c-0.00587,0.10262 0.01228,0.67115 0.01607,0.73161z" data-paper-data="{&quot;origRot&quot;:0,&quot;origPos&quot;:null}" id="Shape" fill="#83cdef"/><path d="M240.08065,179.705c0,0 0.09155,0.67754 -0.00862,0.91003c-0.12628,-0.07031 -0.13189,-0.22542 -0.13189,-0.22542l0.00199,-0.54112c0.07073,-0.09741 0.13852,-0.14348 0.13852,-0.14348z" data-paper-data="{&quot;origRot&quot;:0,&quot;origPos&quot;:null}" id="Shape" fill="#bee6f1"/><path d="M239.65159,181.13105c-0.08866,-0.22194 -0.10293,-0.35197 -0.14163,-0.56129l0.43788,-0.18811l0.15022,0.15817c-0.00146,0.02566 -0.01014,0.05073 -0.01833,0.06725c0,0 -0.28486,0.42382 -0.42813,0.52398z" data-paper-data="{&quot;origRot&quot;:0,&quot;origPos&quot;:null}" id="Shape" fill="#73b5e4"/><path d="M239.64439,181.13047c0,0 -0.02113,-0.01029 -0.04898,-0.02972c-0.03505,-0.02001 -0.07683,-0.04915 -0.133,-0.07944c-0.02785,-0.01943 -0.05569,-0.03885 -0.08353,-0.05828c-0.02785,-0.01943 -0.06241,-0.04799 -0.09698,-0.07655c-0.06241,-0.04799 -0.13105,-0.11365 -0.20018,-0.17078c-0.06143,-0.0651 -0.13007,-0.13077 -0.18478,-0.18673c-0.05423,-0.06451 -0.10894,-0.12047 -0.14925,-0.17527c-0.08781,-0.11018 -0.13434,-0.18266 -0.13434,-0.18266c0,0 0.06094,0.07366 0.14973,0.16672c0.048,0.04683 0.10271,0.10278 0.15694,0.16729c0.06193,0.05654 0.12336,0.12163 0.18479,0.18673c0.06143,0.0651 0.13055,0.12221 0.19296,0.1702c0.06193,0.05654 0.12434,0.10452 0.17282,0.1428c0.04849,0.03827 0.09697,0.07655 0.12482,0.09598c0.02785,0.01943 0.04897,0.02972 0.04897,0.02972z" data-paper-data="{&quot;origRot&quot;:0,&quot;origPos&quot;:null}" id="Shape" fill="#3b73e4"/><path d="M239.63208,179.06743c0,0 -0.00244,0.04276 -0.01308,0.10205c-0.01063,0.05929 -0.02224,0.13568 -0.04106,0.21149c-0.01881,0.07581 -0.03763,0.15162 -0.05547,0.21033c-0.01783,0.05871 -0.02699,0.09233 -0.02699,0.09233c0,0 -0.00476,-0.04335 0.00587,-0.10263c0.01063,-0.05929 0.02224,-0.13568 0.04105,-0.21148c0.01881,-0.07581 0.03763,-0.15162 0.05547,-0.21033c0.01783,-0.05871 0.03421,-0.09176 0.03421,-0.09176z" data-paper-data="{&quot;origRot&quot;:0,&quot;origPos&quot;:null}" id="Shape" fill="#bee6f1"/><path d="M239.40314,179.7793c0,0 -0.04471,0.02218 -0.10383,0.04319c-0.06681,0.02899 -0.14803,0.05681 -0.22975,0.09318c-0.08123,0.02783 -0.17015,0.06361 -0.22926,0.08463c-0.02981,0.01478 -0.05911,0.02102 -0.07451,0.03696c-0.0154,0.01594 -0.02259,0.01537 -0.02259,0.01537c0,0 0.00769,-0.00798 0.02309,-0.02392c0.0154,-0.01594 0.03799,-0.03131 0.06828,-0.05464c0.06009,-0.03812 0.14182,-0.07449 0.23074,-0.11029c0.08892,-0.0358 0.16966,-0.05507 0.23597,-0.0755c0.05765,0.00465 0.10187,-0.00897 0.10187,-0.00897z" data-paper-data="{&quot;origRot&quot;:0,&quot;origPos&quot;:null}" id="Shape" fill="#bee6f1"/><path d="M239.80261,180.51601c-0.00244,0.04276 -0.08785,0.39674 -0.13563,0.5991c-0.0077,0.00797 -0.0149,0.00738 -0.02259,0.01536c-0.08866,-0.22194 -0.10294,-0.35197 -0.14164,-0.56129l0.29656,-0.12216c-0.00196,0.0342 -0.00342,0.05987 0.0033,0.069z" data-paper-data="{&quot;origRot&quot;:0,&quot;origPos&quot;:null}" id="Shape" fill="#679fe4"/><path d="M239.79931,180.44701l-0.29656,0.12216c-0.06166,-0.31427 -0.02657,-0.80118 -0.02657,-0.80118l0.3084,0.05062c-0.00062,0.13742 0.00863,0.48184 0.01473,0.62839z" data-paper-data="{&quot;origRot&quot;:0,&quot;origPos&quot;:null}" id="Shape" fill="#7cbfef"/></g></g></svg>