<svg version="1.1" xmlns="http://www.w3.org/2000/svg" xmlns:xlink="http://www.w3.org/1999/xlink" width="54.99076" height="77.25142" viewBox="0,0,54.99076,77.25142"><g transform="translate(-212.27923,-143.2376)"><g data-paper-data="{&quot;isPaintingLayer&quot;:true}" fill="none" fill-rule="nonzero" stroke="none" stroke-width="1" stroke-linecap="butt" stroke-linejoin="miter" stroke-miterlimit="10" stroke-dasharray="" stroke-dashoffset="0" font-family="none" font-weight="none" font-size="none" text-anchor="none" style="mix-blend-mode: normal"><path d="M267.27,207.26281c0,1.82621 -0.60493,8.02427 -8.45938,11.19709c-1.84359,0.75631 -3.86962,1.14369 -6.02047,1.14369c-2.18926,0 -4.51295,-0.38737 -7.08629,-1.1898c-1.99722,-0.61797 -4.88743,-1.39272 -8.61301,-2.31505c-4.57056,3.07136 -8.0657,4.39029 -11.54163,4.39029c-3.63917,0 -7.09589,-1.40194 -9.74605,-3.93834c-1.98762,-1.9 -3.10145,-4.48252 -3.10145,-7.17572v-1.78932c0,-1.12525 0.20164,-2.61941 0.9602,-4.2335c0.39368,-3.29272 1.21946,-6.53931 2.45812,-9.67524c0.33607,-0.90388 0.9698,-2.4165 2.73658,-6.04126c1.77637,-3.56941 4.44574,-7.29563 8.14252,-11.31699c-0.65294,0.08301 -1.25786,0.11991 -1.79558,0.11991c-6.42375,0 -12.92432,-4.51942 -12.92432,-13.15242c0,-2.92378 1.07543,-5.87524 3.83121,-10.53301c0.81617,-1.37427 1.94921,-2.54563 3.3223,-3.42184c0.18244,-0.11991 0.41289,-0.26748 0.67214,-0.44272c0.70095,-0.56262 1.51712,-1.10679 2.52533,-1.70631c0.66254,-0.38737 1.36349,-0.7102 2.09324,-0.95c1.71876,-0.57185 3.50474,-1.13447 5.32912,-1.67864c2.62135,-0.78398 5.01226,-1.20825 7.29754,-1.30049h0.11522c5.17549,-0.14757 10.09173,0.75631 14.67189,2.70242c4.2825,1.76165 7.72003,4.80533 10.22615,9.05728c2.3525,4.00291 3.42792,8.03349 3.20708,11.99029c-0.0096,0.11068 -0.0192,0.22136 -0.02881,0.34126c-0.33607,3.66165 -1.63234,7.03737 -3.86962,10.03495c-0.10562,0.14757 -0.23045,0.29514 -0.34567,0.44272c-0.70095,0.84855 -1.93001,2.1767 -5.17549,4.9898c-1.9012,1.90922 -4.56096,4.49174 -8.09451,7.85825c-0.34567,0.47962 -0.72015,0.95922 -1.13304,1.42961c1.30588,0.33204 2.64056,0.75631 4.03285,1.24514l1.53632,0.53495c0.25925,-0.00922 0.50891,-0.00922 0.75856,-0.00922c5.46355,0 8.77625,2.28738 10.60063,4.21504c0.04801,0.04612 0.08642,0.09223 0.13443,0.13835c1.99722,2.19514 3.10145,5.07281 3.27429,8.54999c0.0096,0.15679 0.0096,0.32281 0.0096,0.48884z" data-paper-data="{&quot;origPos&quot;:null}" id="ID0.3025646088644862" fill="#ffb900"/><path d="M256.71162,207.26004c0,0.70189 -0.67598,1.32447 -2.02699,1.86495c-1.29627,0.54049 -3.20996,0.41874 -5.74297,-0.36524c-2.53397,-0.7849 -6.24996,-1.77272 -11.14795,-2.9616c-2.30929,-0.27117 -4.30747,0.21583 -5.99646,1.46097c-2.92862,2.05495 -5.01322,3.08243 -6.25092,3.08243c-0.84402,0 -1.6045,-0.32466 -2.28048,-0.97213v-1.78286c0,-0.05442 0.07009,-0.16233 0.2122,-0.32374c0.14019,-0.16326 0.22373,-0.33849 0.25349,-0.52573c0.02689,-0.19 0.12675,-0.50083 0.29574,-0.93155c0.22373,-2.97082 0.90067,-5.85956 2.02699,-8.66806c0.28134,-0.80889 1.06871,-2.53641 2.36498,-5.1835c1.689,-3.40156 4.75684,-7.31684 9.20642,-11.74587c1.29435,-1.18704 3.15234,-2.9699 5.57397,-5.34674c1.06871,-0.97121 2.14029,-1.9166 3.20996,-2.83432c1.52,-1.40287 2.30737,-2.50966 2.36498,-3.32131c0.11138,-0.16233 0.25349,-0.43257 0.42153,-0.80981c0.05569,-0.59398 0.02785,-1.40287 -0.0845,-2.43034c-0.05665,-0.10791 -0.12675,-0.35141 -0.21124,-0.72864c-0.0845,-0.37815 -0.1834,-0.97213 -0.29574,-1.78286c-1.68996,-3.24014 -4.92776,-4.86068 -9.71245,-4.86068c-3.20996,0 -5.65943,0.77752 -7.34843,2.3298c-0.169,0.05349 -0.39368,0.13466 -0.67502,0.24073c-0.95828,0.58937 -1.54881,1.15199 -1.77445,1.68694c-1.18201,2.62495 -2.47828,3.9365 -3.88498,3.9365c-1.57761,0 -2.36498,-0.99981 -2.36498,-3.00126c0,-0.91956 0.81617,-2.75868 2.44948,-5.51646c0.33799,-0.21583 0.78737,-0.51374 1.351,-0.89282c0.28134,-0.27024 0.78737,-0.62165 1.52096,-1.05514c1.63138,-0.54049 3.30598,-1.06713 5.02474,-1.5818c1.71684,-0.51374 3.25221,-0.79781 4.60321,-0.85224c3.60268,-0.10791 6.98163,0.51466 10.13493,1.86495c2.13933,0.86607 3.88498,2.44787 5.23694,4.74631c1.351,2.29936 1.97034,4.4484 1.85799,6.44893c-0.169,1.83912 -0.81713,3.51592 -1.94249,5.03038c-0.67502,0.81073 -2.11052,2.16378 -4.30651,4.05548c-1.97226,2.00238 -5.01226,4.94923 -9.12192,8.8433c-0.33799,0.75816 -1.09847,1.59563 -2.28048,2.51519c-0.05665,0.21675 -0.1978,0.54141 -0.42153,0.97398c-0.73263,1.24514 -1.77349,2.62403 -3.12546,4.13757c0.05569,0.48607 -0.169,1.05514 -0.67502,1.70354c-0.62029,0.92048 -0.92948,1.43422 -0.92948,1.54214c-0.4513,1.02748 -1.04278,2.54287 -1.77445,4.5434c-0.169,0.64932 -0.4513,1.65005 -0.84402,3.00219c1.29435,-0.37815 3.01119,-0.83839 5.15149,-1.3798c1.29531,-0.21491 2.56182,-0.32466 3.80048,-0.32466c2.53493,0 5.46163,0.59582 8.78393,1.78563c0.78737,0.27117 1.97034,0.67607 3.54699,1.21656c0.78737,-0.05349 1.57569,-0.08117 2.36498,-0.08117c1.29435,0 2.22287,0.29699 2.78651,0.89282c0.39176,0.43442 0.61837,1.21932 0.67502,2.35563z" data-paper-data="{&quot;origPos&quot;:null}" id="ID0.017727231606841087" fill="#ffffff"/></g></g></svg>