<svg version="1.1" xmlns="http://www.w3.org/2000/svg" xmlns:xlink="http://www.w3.org/1999/xlink" width="60.36172" height="23.38815" viewBox="0,0,60.36172,23.38815"><defs><linearGradient x1="240.44934" y1="170.58612" x2="240.44934" y2="193.93927" gradientUnits="userSpaceOnUse" id="color-1"><stop offset="0" stop-color="#8644b3"/><stop offset="1" stop-color="#4487b3"/></linearGradient><linearGradient x1="259.24432" y1="170.80032" x2="259.24432" y2="183.09464" gradientUnits="userSpaceOnUse" id="color-2"><stop offset="0" stop-color="#ea8be5"/><stop offset="1" stop-color="#8b99ea"/></linearGradient><linearGradient x1="259.24432" y1="170.80032" x2="259.24432" y2="183.09464" gradientUnits="userSpaceOnUse" id="color-3"><stop offset="0" stop-color="#ea8be5"/><stop offset="1" stop-color="#8b99ea"/></linearGradient><linearGradient x1="259.30784" y1="179.01308" x2="259.30784" y2="193.96033" gradientUnits="userSpaceOnUse" id="color-4"><stop offset="0" stop-color="#ad59c2"/><stop offset="1" stop-color="#5983c2"/></linearGradient><linearGradient x1="233.14689" y1="170.73067" x2="233.14689" y2="179.98466" gradientUnits="userSpaceOnUse" id="color-5"><stop offset="0" stop-color="#ad59c2"/><stop offset="1" stop-color="#5983c2"/></linearGradient><linearGradient x1="231.9482" y1="178.93353" x2="231.9482" y2="179.81968" gradientUnits="userSpaceOnUse" id="color-6"><stop offset="0" stop-color="#ea8be5"/><stop offset="1" stop-color="#8b99ea"/></linearGradient><linearGradient x1="212.39474" y1="176.31842" x2="212.39474" y2="179.84011" gradientUnits="userSpaceOnUse" id="color-7"><stop offset="0" stop-color="#a546bd"/><stop offset="1" stop-color="#4676bd"/></linearGradient><linearGradient x1="212.64975" y1="179.77063" x2="212.64975" y2="185.98676" gradientUnits="userSpaceOnUse" id="color-8"><stop offset="0" stop-color="#7c36ab"/><stop offset="1" stop-color="#367cab"/></linearGradient><linearGradient x1="227.75271" y1="179.96715" x2="227.75271" y2="192.11106" gradientUnits="userSpaceOnUse" id="color-9"><stop offset="0" stop-color="#6b348f"/><stop offset="1" stop-color="#346a8f"/></linearGradient><linearGradient x1="253.12022" y1="170.67327" x2="253.12022" y2="180.76675" gradientUnits="userSpaceOnUse" id="color-10"><stop offset="0" stop-color="#e17de3"/><stop offset="1" stop-color="#7d93e3"/></linearGradient><linearGradient x1="253.29974" y1="179.01308" x2="253.29974" y2="193.97427" gradientUnits="userSpaceOnUse" id="color-11"><stop offset="0" stop-color="#9b4dae"/><stop offset="1" stop-color="#4d73ae"/></linearGradient><linearGradient x1="251.85523" y1="182.35575" x2="251.85523" y2="193.82523" gradientUnits="userSpaceOnUse" id="color-12"><stop offset="0" stop-color="#6b348f"/><stop offset="1" stop-color="#346a8f"/></linearGradient></defs><g transform="translate(-210.15396,-170.58612)"><g data-paper-data="{&quot;isPaintingLayer&quot;:true}" fill="none" fill-rule="nonzero" stroke="none" stroke-width="1" stroke-linecap="butt" stroke-linejoin="miter" stroke-miterlimit="10" stroke-dasharray="" stroke-dashoffset="0" font-family="none" font-weight="none" font-size="none" text-anchor="none" style="mix-blend-mode: normal"><g data-paper-data="{&quot;origRot&quot;:0,&quot;origPos&quot;:null}" id="Group"><path d="M213.27356,176.31842c0,0 37.55695,-6.46947 42.9758,-5.66265c0,0 9.64578,4.23752 14.26632,12.40386c0,0 -7.79873,7.28845 -15.07125,10.87964c0,0 -38.96134,-6.54151 -41.74729,-7.97002c0,0 -2.7024,-3.64077 -3.30659,-6.14663c-0.10954,0.14455 0.97736,-3.24161 2.88301,-3.50418z" id="Shape" fill="url(#color-1)"/><path d="M270.26159,183.09464l-22.03454,-3.95451c1.81866,-4.65209 7.91277,-8.33981 7.91277,-8.33981c0,0 9.64578,4.23752 14.12177,12.29432z" id="Shape" fill="url(#color-2)"/><path d="M270.26159,183.09464l-22.03454,-3.95451c1.81866,-4.65209 7.91277,-8.33981 7.91277,-8.33981c0,0 9.64578,4.23752 14.12177,12.29432z" id="Shape" fill="url(#color-3)"/><path d="M254.26602,193.84272c-3.51666,-7.67116 -6.05648,-14.82964 -6.05648,-14.82964l22.05205,4.08155c0.12704,-0.01751 0.14455,0.10954 0.14455,0.10954c0,0 -7.79873,7.28845 -15.08876,10.75259c0,0 -0.25409,0.03501 -1.05136,-0.11405z" id="Shape" fill="url(#color-4)"/><path d="M248.1,179.15763l-37.94604,0.82703c0,0 1.23145,-3.27662 3.01006,-3.52169c0,0 37.55695,-6.46947 42.9758,-5.66265z" id="Shape" fill="url(#color-5)"/><path d="M248.20954,179.01309c0,0 -2.05021,0.15304 -5.13427,0.31907c-1.54203,0.08302 -3.35565,0.074 -5.27881,0.20954c-1.94067,0.00849 -3.99087,0.16153 -5.93154,0.17002c-2.06771,0.02599 -4.13542,0.05199 -5.94904,0.04297c-1.94067,0.00849 -3.75429,-0.00053 -5.16928,0.06499c-2.99203,-0.10556 -5.05974,-0.07956 -5.05974,-0.07956c0,0 2.05021,-0.15304 5.13427,-0.31907c1.54203,-0.08302 3.35565,-0.074 5.27881,-0.20954c1.94067,-0.00849 3.99087,-0.16153 5.93154,-0.17002c2.06771,-0.02599 4.13542,-0.05199 5.94904,-0.04297c1.94067,-0.00849 3.75429,0.00053 5.16928,-0.06499c3.11907,0.08805 5.05974,0.07956 5.05974,0.07956z" id="Shape" fill="url(#color-6)"/><path d="M214.52596,179.77062l-4.26246,0.06949c0,0 1.23145,-3.27662 3.01006,-3.52169c0,0 0.66121,1.98018 1.25241,3.45219z" id="Shape" fill="url(#color-7)"/><path d="M213.57009,185.98675c0,0 -2.71991,-3.76781 -3.30659,-6.14663l4.26246,-0.06949c0.23207,0.74476 0.44664,1.36247 0.48165,1.61656c0.26708,0.99884 -1.43753,4.59957 -1.43753,4.59957z" id="Shape" fill="url(#color-8)"/><path d="M210.281,179.96715c0.41163,1.10838 0.95031,2.19926 1.47148,3.1631c0.52117,0.96383 1.16939,1.91016 2.05419,2.69444l-0.14455,-0.10954c2.64591,0.41216 5.30932,0.95136 7.97273,1.49057c2.66341,0.5392 5.30932,0.95136 7.84568,1.50807c5.32682,1.07841 10.5266,2.17432 15.74389,3.39727c-5.29181,-0.82432 -10.60113,-1.77568 -15.92795,-2.85409c-2.66341,-0.5392 -5.32682,-1.07841 -7.84568,-1.50807c-2.66341,-0.5392 -5.32682,-1.07841 -7.86319,-1.63512c-0.77526,-0.92882 -1.42348,-1.87515 -1.96215,-2.96603c-0.66572,-1.07337 -1.05985,-2.05471 -1.34444,-3.1806z" id="Shape" fill="url(#color-9)"/><path d="M256.12231,170.67327c0,0 1.31341,5.77399 1.90859,10.09348l-9.82136,-1.75367c1.96321,-4.54255 7.91277,-8.33981 7.91277,-8.33981z" id="Shape" fill="url(#color-10)"/><path d="M258.24494,185.13876c-0.22358,1.19591 -1.55157,5.65093 -2.56394,8.63845c-0.12704,0.01751 -0.36363,0.17956 -0.49067,0.19706c0,0 -0.27159,-0.09203 -0.92432,-0.13155c-3.51666,-7.67116 -6.05648,-14.82964 -6.05648,-14.82964l9.82136,1.75367c0.28008,2.0327 0.52515,3.81131 0.21404,4.372z" id="Shape" fill="url(#color-11)"/><path d="M254.39306,193.82522c0,0 -0.48616,-0.70975 -1.00733,-1.67358c-0.53868,-1.09088 -1.23941,-2.41834 -1.95765,-3.87284c-0.59119,-1.47201 -1.18239,-2.94402 -1.59402,-4.0524c-0.41163,-1.10838 -0.51666,-1.87065 -0.51666,-1.87065c0,0 0.01751,0.12704 0.19706,0.49067c0.17956,0.36363 0.35912,0.72725 0.57369,1.34497c0.53868,1.09088 1.11237,2.43584 1.8306,3.89035c0.59119,1.47201 1.30943,2.92651 1.72106,4.0349c0.52117,0.96383 0.75325,1.70859 0.75325,1.70859z" id="Shape" fill="url(#color-12)"/></g><path d="M270.26159,183.09464c0,0 -1.05136,-0.11405 -2.6284,-0.28512c-1.57704,-0.17107 -3.69727,-0.52621 -5.81749,-0.88134c-2.12023,-0.35514 -4.25796,-0.83732 -5.87001,-1.26247c-1.61205,-0.42516 -2.68092,-0.66625 -2.68092,-0.66625c0,0 1.05136,0.11405 2.6284,0.28512c1.70408,0.15356 3.95135,0.4912 5.94454,0.86384c2.12023,0.35514 4.25796,0.83732 5.87001,1.26247c1.59455,0.29811 2.55387,0.68375 2.55387,0.68375z" data-paper-data="{&quot;origRot&quot;:0,&quot;origPos&quot;:null}" id="Shape" fill="#ffbcfc"/><text transform="translate(230.5,186.47166) scale(0.37245,0.37245)" font-size="40" xml:space="preserve" data-paper-data="{&quot;origPos&quot;:null}" fill="#ffce00" fill-rule="nonzero" stroke="none" stroke-width="1" stroke-linecap="butt" stroke-linejoin="miter" stroke-miterlimit="10" stroke-dasharray="" stroke-dashoffset="0" font-family="Curly" font-weight="normal" text-anchor="start" style="mix-blend-mode: normal"><tspan x="0" dy="0">Next</tspan></text></g></g></svg>